<svg version="1.1" xmlns="http://www.w3.org/2000/svg" width="500" height="300"><defs><clipPath id="DTCDcTDeTfXt"><path fill="none" stroke="none" d="M 52.5 27.5 L 470.5 27.5 L 470.5 255.5 L 52.5 255.5 L 52.5 27.5"/></clipPath><clipPath id="lSBvChBBTxkL"><path fill="none" stroke="none" d="M 52.5 27.5 L 470.5 27.5 L 470.5 255.5 L 52.5 255.5 L 52.5 27.5"/></clipPath><clipPath id="gfJwOeFtkzAk"><path fill="none" stroke="none" d="M 52.5 27.5 L 470.5 27.5 L 470.5 255.5 L 52.5 255.5 L 52.5 27.5"/></clipPath><clipPath id="AbwJWuLWPNpP"><path fill="none" stroke="none" d="M 52.5 27.5 L 470.5 27.5 L 470.5 255.5 L 52.5 255.5 L 52.5 27.5"/></clipPath><clipPath id="MNXvlLVryOrz"><path fill="none" stroke="none" d="M 52.5 27.5 L 470.5 27.5 L 470.5 255.5 L 52.5 255.5 L 52.5 27.5"/></clipPath></defs><path fill="rgb(255,255,255)" stroke="none" paint-order="stroke" d="M 0.5 0.5 L 500.5 0.5 L 500.5 300.5 L 0.5 300.5 L 0.5 0.5" fill-opacity="1"/><rect fill="#FFFFFF" stroke="none" x="52" y="27" width="418" height="228" transform="matrix(1, 0, 0, 1, 0.5, 0.5)"/><path fill="rgb(255,255,255)" stroke="none" paint-order="stroke" d="M 52.5 27.5 L 470.5 27.5 L 470.5 255.5 L 52.5 255.5 L 52.5 27.5" fill-opacity="1"/><path fill="none" stroke="rgb(229,229,229)" paint-order="fill" d="M 52.5 27.5 L 470.5 27.5 L 470.5 255.5 L 52.5 255.5 L 52.5 27.5" stroke-opacity="1" stroke-linejoin="bevel" stroke-miterlimit="10" stroke-dasharray=""/><path fill="none" stroke="rgb(229,229,229)" paint-order="fill" d="M 39.5 255.5 L 39.5 27.5 M 71.5 255.5 L 71.5 27.5 M 103.5 255.5 L 103.5 27.5 M 134.5 255.5 L 134.5 27.5 M 166.5 255.5 L 166.5 27.5 M 198.5 255.5 L 198.5 27.5 M 229.5 255.5 L 229.5 27.5 M 261.5 255.5 L 261.5 27.5 M 293.5 255.5 L 293.5 27.5 M 324.5 255.5 L 324.5 27.5 M 356.5 255.5 L 356.5 27.5 M 388.5 255.5 L 388.5 27.5 M 419.5 255.5 L 419.5 27.5 M 451.5 255.5 L 451.5 27.5" stroke-opacity="1" stroke-linejoin="bevel" stroke-miterlimit="10" stroke-dasharray="" clip-path="url(#DTCDcTDeTfXt)"/><path fill="none" stroke="rgb(229,229,229)" paint-order="fill" d="M 52.5 244.5 L 470.5 244.5 M 52.5 201.5 L 470.5 201.5 M 52.5 157.5 L 470.5 157.5 M 52.5 114.5 L 470.5 114.5 M 52.5 70.5 L 470.5 70.5" stroke-opacity="1" stroke-linejoin="bevel" stroke-miterlimit="10" stroke-dasharray="" clip-path="url(#lSBvChBBTxkL)"/><path fill="none" stroke="rgb(160,160,160)" paint-order="fill" d="M 71.5 244.64285278320312 L 71.5 186.68943786621094" stroke-opacity="0.5019607843137255" stroke-linejoin="bevel" stroke-miterlimit="10" stroke-width="15" stroke-dasharray="" clip-path="url(#gfJwOeFtkzAk)"/><path fill="none" stroke="rgb(160,160,160)" paint-order="fill" d="M 103.16666412353516 244.64285278320312 L 103.16666412353516 170.90403747558594" stroke-opacity="0.5019607843137255" stroke-linejoin="bevel" stroke-miterlimit="10" stroke-width="15" stroke-dasharray="" clip-path="url(#gfJwOeFtkzAk)"/><path fill="none" stroke="rgb(160,160,160)" paint-order="fill" d="M 134.8333282470703 244.64285278320312 L 134.8333282470703 164.4296417236328" stroke-opacity="0.5019607843137255" stroke-linejoin="bevel" stroke-miterlimit="10" stroke-width="15" stroke-dasharray="" clip-path="url(#gfJwOeFtkzAk)"/><path fill="none" stroke="rgb(160,160,160)" paint-order="fill" d="M 166.5 244.64285278320312 L 166.5 153.00164794921875" stroke-opacity="0.5019607843137255" stroke-linejoin="bevel" stroke-miterlimit="10" stroke-width="15" stroke-dasharray="" clip-path="url(#gfJwOeFtkzAk)"/><path fill="none" stroke="rgb(160,160,160)" paint-order="fill" d="M 198.1666717529297 244.64285278320312 L 198.1666717529297 149.78439331054688" stroke-opacity="0.5019607843137255" stroke-linejoin="bevel" stroke-miterlimit="10" stroke-width="15" stroke-dasharray="" clip-path="url(#gfJwOeFtkzAk)"/><path fill="none" stroke="rgb(160,160,160)" paint-order="fill" d="M 229.8333282470703 244.64285278320312 L 229.8333282470703 146.3998565673828" stroke-opacity="0.5019607843137255" stroke-linejoin="bevel" stroke-miterlimit="10" stroke-width="15" stroke-dasharray="" clip-path="url(#gfJwOeFtkzAk)"/><path fill="none" stroke="rgb(160,160,160)" paint-order="fill" d="M 261.5 244.64285278320312 L 261.5 137.74612426757812" stroke-opacity="0.5019607843137255" stroke-linejoin="bevel" stroke-miterlimit="10" stroke-width="15" stroke-dasharray="" clip-path="url(#gfJwOeFtkzAk)"/><path fill="none" stroke="rgb(160,160,160)" paint-order="fill" d="M 293.1666564941406 244.64285278320312 L 293.1666564941406 135.37026977539062" stroke-opacity="0.5019607843137255" stroke-linejoin="bevel" stroke-miterlimit="10" stroke-width="15" stroke-dasharray="" clip-path="url(#gfJwOeFtkzAk)"/><path fill="none" stroke="rgb(160,160,160)" paint-order="fill" d="M 324.8333435058594 244.64285278320312 L 324.8333435058594 132.22137451171875" stroke-opacity="0.5019607843137255" stroke-linejoin="bevel" stroke-miterlimit="10" stroke-width="15" stroke-dasharray="" clip-path="url(#gfJwOeFtkzAk)"/><path fill="none" stroke="rgb(160,160,160)" paint-order="fill" d="M 356.5 244.64285278320312 L 356.5 127.52498626708984" stroke-opacity="0.5019607843137255" stroke-linejoin="bevel" stroke-miterlimit="10" stroke-width="15" stroke-dasharray="" clip-path="url(#gfJwOeFtkzAk)"/><path fill="none" stroke="rgb(160,160,160)" paint-order="fill" d="M 388.1666564941406 244.64285278320312 L 388.1666564941406 126.36463928222656" stroke-opacity="0.5019607843137255" stroke-linejoin="bevel" stroke-miterlimit="10" stroke-width="15" stroke-dasharray="" clip-path="url(#gfJwOeFtkzAk)"/><path fill="none" stroke="rgb(160,160,160)" paint-order="fill" d="M 419.8333435058594 244.64285278320312 L 419.8333435058594 125.80524444580078" stroke-opacity="0.5019607843137255" stroke-linejoin="bevel" stroke-miterlimit="10" stroke-width="15" stroke-dasharray="" clip-path="url(#gfJwOeFtkzAk)"/><path fill="none" stroke="rgb(160,160,160)" paint-order="fill" d="M 451.5 244.64285278320312 L 451.5 121.77115631103516" stroke-opacity="0.5019607843137255" stroke-linejoin="bevel" stroke-miterlimit="10" stroke-width="15" stroke-dasharray="" clip-path="url(#gfJwOeFtkzAk)"/><path fill="none" stroke="rgb(0,0,0)" paint-order="fill" d="M 52.5 255.5 L 470.5 255.5" stroke-opacity="1" stroke-linejoin="bevel" stroke-miterlimit="10" stroke-dasharray=""/><path fill="none" stroke="rgb(0,0,0)" paint-order="fill" d="M 71.5 261.5 L 71.5 253.5 M 103.5 261.5 L 103.5 253.5 M 134.5 261.5 L 134.5 253.5 M 166.5 261.5 L 166.5 253.5 M 198.5 261.5 L 198.5 253.5 M 229.5 261.5 L 229.5 253.5 M 261.5 261.5 L 261.5 253.5 M 293.5 261.5 L 293.5 253.5 M 324.5 261.5 L 324.5 253.5 M 356.5 261.5 L 356.5 253.5 M 388.5 261.5 L 388.5 253.5 M 419.5 261.5 L 419.5 253.5 M 451.5 261.5 L 451.5 253.5" stroke-opacity="1" stroke-linejoin="bevel" stroke-miterlimit="10" stroke-dasharray=""/><path fill="none" stroke="rgb(0,0,0)" paint-order="fill" d="" stroke-opacity="1" stroke-linejoin="bevel" stroke-miterlimit="10" stroke-dasharray=""/><text fill="rgb(68,68,68)" stroke="none" font-family="helvetica" font-size="11px" font-style="normal" font-weight="normal" text-decoration="normal" x="58.7646484375" y="273.89013671875" text-anchor="start" dominant-baseline="alphabetic" transform="matrix(1, 0, 0, 1, 0.5, 0.5)" fill-opacity="1">2012</text><text fill="rgb(68,68,68)" stroke="none" font-family="helvetica" font-size="11px" font-style="normal" font-weight="normal" text-decoration="normal" x="90.43131256103516" y="273.89013671875" text-anchor="start" dominant-baseline="alphabetic" transform="matrix(1, 0, 0, 1, 0.5, 0.5)" fill-opacity="1">2013</text><text fill="rgb(68,68,68)" stroke="none" font-family="helvetica" font-size="11px" font-style="normal" font-weight="normal" text-decoration="normal" x="122.09797668457031" y="273.89013671875" text-anchor="start" dominant-baseline="alphabetic" transform="matrix(1, 0, 0, 1, 0.5, 0.5)" fill-opacity="1">2014</text><text fill="rgb(68,68,68)" stroke="none" font-family="helvetica" font-size="11px" font-style="normal" font-weight="normal" text-decoration="normal" x="153.7646484375" y="273.89013671875" text-anchor="start" dominant-baseline="alphabetic" transform="matrix(1, 0, 0, 1, 0.5, 0.5)" fill-opacity="1">2015</text><text fill="rgb(68,68,68)" stroke="none" font-family="helvetica" font-size="11px" font-style="normal" font-weight="normal" text-decoration="normal" x="185.4313201904297" y="273.89013671875" text-anchor="start" dominant-baseline="alphabetic" transform="matrix(1, 0, 0, 1, 0.5, 0.5)" fill-opacity="1">2016</text><text fill="rgb(68,68,68)" stroke="none" font-family="helvetica" font-size="11px" font-style="normal" font-weight="normal" text-decoration="normal" x="217.0979766845703" y="273.89013671875" text-anchor="start" dominant-baseline="alphabetic" transform="matrix(1, 0, 0, 1, 0.5, 0.5)" fill-opacity="1">2017</text><text fill="rgb(68,68,68)" stroke="none" font-family="helvetica" font-size="11px" font-style="normal" font-weight="normal" text-decoration="normal" x="248.7646484375" y="273.89013671875" text-anchor="start" dominant-baseline="alphabetic" transform="matrix(1, 0, 0, 1, 0.5, 0.5)" fill-opacity="1">2018</text><text fill="rgb(68,68,68)" stroke="none" font-family="helvetica" font-size="11px" font-style="normal" font-weight="normal" text-decoration="normal" x="280.4313049316406" y="273.89013671875" text-anchor="start" dominant-baseline="alphabetic" transform="matrix(1, 0, 0, 1, 0.5, 0.5)" fill-opacity="1">2019</text><text fill="rgb(68,68,68)" stroke="none" font-family="helvetica" font-size="11px" font-style="normal" font-weight="normal" text-decoration="normal" x="312.0979919433594" y="273.89013671875" text-anchor="start" dominant-baseline="alphabetic" transform="matrix(1, 0, 0, 1, 0.5, 0.5)" fill-opacity="1">2020</text><text fill="rgb(68,68,68)" stroke="none" font-family="helvetica" font-size="11px" font-style="normal" font-weight="normal" text-decoration="normal" x="343.7646484375" y="273.89013671875" text-anchor="start" dominant-baseline="alphabetic" transform="matrix(1, 0, 0, 1, 0.5, 0.5)" fill-opacity="1">2021</text><text fill="rgb(68,68,68)" stroke="none" font-family="helvetica" font-size="11px" font-style="normal" font-weight="normal" text-decoration="normal" x="375.4313049316406" y="273.89013671875" text-anchor="start" dominant-baseline="alphabetic" transform="matrix(1, 0, 0, 1, 0.5, 0.5)" fill-opacity="1">2022</text><text fill="rgb(68,68,68)" stroke="none" font-family="helvetica" font-size="11px" font-style="normal" font-weight="normal" text-decoration="normal" x="407.0979919433594" y="273.89013671875" text-anchor="start" dominant-baseline="alphabetic" transform="matrix(1, 0, 0, 1, 0.5, 0.5)" fill-opacity="1">2023</text><text fill="rgb(68,68,68)" stroke="none" font-family="helvetica" font-size="11px" font-style="normal" font-weight="normal" text-decoration="normal" x="438.7646484375" y="273.89013671875" text-anchor="start" dominant-baseline="alphabetic" transform="matrix(1, 0, 0, 1, 0.5, 0.5)" fill-opacity="1">2024</text><text fill="rgb(68,68,68)" stroke="none" font-family="helvetica" font-size="13px" font-style="italic" font-weight="normal" text-decoration="normal" x="229.322021484375" y="293.89013671875" text-anchor="start" dominant-baseline="alphabetic" transform="matrix(1, 0, 0, 1, 0.5, 0.5)" fill-opacity="1">Cutoff year</text><path fill="none" stroke="rgb(0,0,0)" paint-order="fill" d="M 52.5 255.5 L 52.5 27.5" stroke-opacity="1" stroke-linejoin="bevel" stroke-miterlimit="10" stroke-dasharray=""/><path fill="none" stroke="rgb(0,0,0)" paint-order="fill" d="M 46.5 244.5 L 54.5 244.5 M 46.5 201.5 L 54.5 201.5 M 46.5 157.5 L 54.5 157.5 M 46.5 114.5 L 54.5 114.5 M 46.5 70.5 L 54.5 70.5 M 46.5 27.5 L 54.5 27.5" stroke-opacity="1" stroke-linejoin="bevel" stroke-miterlimit="10" stroke-dasharray=""/><path fill="none" stroke="rgb(0,0,0)" paint-order="fill" d="" stroke-opacity="1" stroke-linejoin="bevel" stroke-miterlimit="10" stroke-dasharray=""/><text fill="rgb(68,68,68)" stroke="none" font-family="helvetica" font-size="11px" font-style="normal" font-weight="normal" text-decoration="normal" x="34.88232421875" y="248.08792114257812" text-anchor="start" dominant-baseline="alphabetic" transform="matrix(1, 0, 0, 1, 0.5, 0.5)" fill-opacity="1">0</text><text fill="rgb(68,68,68)" stroke="none" font-family="helvetica" font-size="11px" font-style="normal" font-weight="normal" text-decoration="normal" x="25.70849609375" y="204.6593475341797" text-anchor="start" dominant-baseline="alphabetic" transform="matrix(1, 0, 0, 1, 0.5, 0.5)" fill-opacity="1">0.2</text><text fill="rgb(68,68,68)" stroke="none" font-family="helvetica" font-size="11px" font-style="normal" font-weight="normal" text-decoration="normal" x="25.70849609375" y="161.2307891845703" text-anchor="start" dominant-baseline="alphabetic" transform="matrix(1, 0, 0, 1, 0.5, 0.5)" fill-opacity="1">0.4</text><text fill="rgb(68,68,68)" stroke="none" font-family="helvetica" font-size="11px" font-style="normal" font-weight="normal" text-decoration="normal" x="25.70849609375" y="117.80220794677734" text-anchor="start" dominant-baseline="alphabetic" transform="matrix(1, 0, 0, 1, 0.5, 0.5)" fill-opacity="1">0.6</text><text fill="rgb(68,68,68)" stroke="none" font-family="helvetica" font-size="11px" font-style="normal" font-weight="normal" text-decoration="normal" x="25.70849609375" y="74.37364196777344" text-anchor="start" dominant-baseline="alphabetic" transform="matrix(1, 0, 0, 1, 0.5, 0.5)" fill-opacity="1">0.8</text><text fill="rgb(68,68,68)" stroke="none" font-family="helvetica" font-size="11px" font-style="normal" font-weight="normal" text-decoration="normal" x="34.88232421875" y="30.945068359375" text-anchor="start" dominant-baseline="alphabetic" transform="matrix(1, 0, 0, 1, 0.5, 0.5)" fill-opacity="1">1</text><text fill="rgb(68,68,68)" stroke="none" font-family="helvetica" font-size="13px" font-style="italic" font-weight="normal" text-decoration="normal" x="-29.61962890625" y="138" text-anchor="start" dominant-baseline="alphabetic" transform="matrix(6.123233995736766e-17, -1, 1, 6.123233995736766e-17, -122.79150390625, 159.20849609375)" fill-opacity="1">months to report</text><path fill="rgb(255,255,255)" stroke="rgb(229,229,229)" paint-order="fill" d="M 208.845703125 37.5 L 460.5 37.5 L 460.5 77.5 L 208.845703125 77.5 L 208.845703125 37.5" fill-opacity="0.9490196078431372" clip-path="url(#AbwJWuLWPNpP)" stroke-opacity="0.5019607843137255" stroke-linejoin="bevel" stroke-miterlimit="10" stroke-dasharray=""/><g clip-path="url(#AbwJWuLWPNpP)"><text fill="rgb(68,68,68)" stroke="none" font-family="helvetica" font-size="13px" font-style="normal" font-weight="normal" text-decoration="normal" x="243.345703125" y="57" text-anchor="start" dominant-baseline="central" transform="matrix(1, 0, 0, 1, 0.5, 0.5)" fill-opacity="1">% reported results within 36 months</text></g><path fill="none" stroke="rgb(160,160,160)" paint-order="fill" d="M 218.845703125 57.5 L 238.845703125 57.5" stroke-opacity="0.5019607843137255" stroke-linejoin="bevel" stroke-miterlimit="10" stroke-width="15" stroke-dasharray="" clip-path="url(#AbwJWuLWPNpP)"/><text fill="rgb(68,68,68)" stroke="none" font-family="helvetica" font-size="13px" font-style="normal" font-weight="bold" text-decoration="normal" x="52" y="19" text-anchor="start" dominant-baseline="alphabetic" transform="matrix(1, 0, 0, 1, 0.5, 0.5)" fill-opacity="1">% Reporting Results within 36 months</text></svg>