<svg version="1.1" xmlns="http://www.w3.org/2000/svg" width="600" height="400"><defs><clipPath id="knKequzobwHV"><path fill="none" stroke="none" d="M 49.5 27.5 L 570.5 27.5 L 570.5 355.5 L 49.5 355.5 L 49.5 27.5"/></clipPath><clipPath id="nLtreWmhVzEm"><path fill="none" stroke="none" d="M 49.5 27.5 L 570.5 27.5 L 570.5 355.5 L 49.5 355.5 L 49.5 27.5"/></clipPath><clipPath id="ArXRoJFURcLl"><path fill="none" stroke="none" d="M 49.5 27.5 L 570.5 27.5 L 570.5 355.5 L 49.5 355.5 L 49.5 27.5"/></clipPath><clipPath id="vpZfmHURiClb"><path fill="none" stroke="none" d="M 49.5 27.5 L 570.5 27.5 L 570.5 355.5 L 49.5 355.5 L 49.5 27.5"/></clipPath><clipPath id="VaMRsmDmkgcy"><path fill="none" stroke="none" d="M 49.5 27.5 L 570.5 27.5 L 570.5 355.5 L 49.5 355.5 L 49.5 27.5"/></clipPath><clipPath id="iMISwDQFDXTR"><path fill="none" stroke="none" d="M 49.5 27.5 L 570.5 27.5 L 570.5 355.5 L 49.5 355.5 L 49.5 27.5"/></clipPath><clipPath id="iOuzMVGrtnBO"><path fill="none" stroke="none" d="M 49.5 27.5 L 570.5 27.5 L 570.5 355.5 L 49.5 355.5 L 49.5 27.5"/></clipPath><clipPath id="ffwDrVEJCFIx"><path fill="none" stroke="none" d="M 49.5 27.5 L 570.5 27.5 L 570.5 355.5 L 49.5 355.5 L 49.5 27.5"/></clipPath><clipPath id="kvHUXHhXLfoF"><path fill="none" stroke="none" d="M 49.5 27.5 L 570.5 27.5 L 570.5 355.5 L 49.5 355.5 L 49.5 27.5"/></clipPath></defs><path fill="rgb(255,255,255)" stroke="none" paint-order="stroke" d="M 0.5 0.5 L 600.5 0.5 L 600.5 400.5 L 0.5 400.5 L 0.5 0.5" fill-opacity="1"/><rect fill="#FFFFFF" stroke="none" x="49" y="27" width="521" height="328" transform="matrix(1, 0, 0, 1, 0.5, 0.5)"/><path fill="rgb(255,255,255)" stroke="none" paint-order="stroke" d="M 49.5 27.5 L 570.5 27.5 L 570.5 355.5 L 49.5 355.5 L 49.5 27.5" fill-opacity="1"/><path fill="none" stroke="rgb(229,229,229)" paint-order="fill" d="M 49.5 27.5 L 570.5 27.5 L 570.5 355.5 L 49.5 355.5 L 49.5 27.5" stroke-opacity="1" stroke-linejoin="bevel" stroke-miterlimit="10" stroke-dasharray=""/><path fill="none" stroke="rgb(229,229,229)" paint-order="fill" d="M 49.5 279.5 L 570.5 279.5 M 49.5 204.5 L 570.5 204.5 M 49.5 128.5 L 570.5 128.5 M 49.5 52.5 L 570.5 52.5 M 49.5 -22.5 L 570.5 -22.5 M 49.5 -98.5 L 570.5 -98.5 M 49.5 -174.5 L 570.5 -174.5 M 49.5 -250.5 L 570.5 -250.5" stroke-opacity="1" stroke-linejoin="bevel" stroke-miterlimit="10" stroke-dasharray="" clip-path="url(#nLtreWmhVzEm)"/><path fill="none" stroke="rgb(205,205,205)" paint-order="fill" d="M 73.18181610107422 281.1090087890625 L 73.18181610107422 131.91261291503906" stroke-opacity="1" stroke-linecap="square" stroke-linejoin="bevel" stroke-miterlimit="10" stroke-width="1.5" stroke-dasharray="" clip-path="url(#ArXRoJFURcLl)"/><path fill="none" stroke="rgb(205,205,205)" paint-order="fill" d="M 112.6515121459961 284.4866638183594 L 112.6515121459961 129.50889587402344" stroke-opacity="1" stroke-linecap="square" stroke-linejoin="bevel" stroke-miterlimit="10" stroke-width="1.5" stroke-dasharray="" clip-path="url(#ArXRoJFURcLl)"/><path fill="none" stroke="rgb(205,205,205)" paint-order="fill" d="M 152.1212158203125 287.2426452636719 L 152.1212158203125 144.36636352539062" stroke-opacity="1" stroke-linecap="square" stroke-linejoin="bevel" stroke-miterlimit="10" stroke-width="1.5" stroke-dasharray="" clip-path="url(#ArXRoJFURcLl)"/><path fill="none" stroke="rgb(205,205,205)" paint-order="fill" d="M 191.59091186523438 293.79071044921875 L 191.59091186523438 139.16522216796875" stroke-opacity="1" stroke-linecap="square" stroke-linejoin="bevel" stroke-miterlimit="10" stroke-width="1.5" stroke-dasharray="" clip-path="url(#ArXRoJFURcLl)"/><path fill="none" stroke="rgb(205,205,205)" paint-order="fill" d="M 231.06060791015625 302.0172424316406 L 231.06060791015625 155.7425994873047" stroke-opacity="1" stroke-linecap="square" stroke-linejoin="bevel" stroke-miterlimit="10" stroke-width="1.5" stroke-dasharray="" clip-path="url(#ArXRoJFURcLl)"/><path fill="none" stroke="rgb(205,205,205)" paint-order="fill" d="M 270.5303039550781 303.3434143066406 L 270.5303039550781 162.1663360595703" stroke-opacity="1" stroke-linecap="square" stroke-linejoin="bevel" stroke-miterlimit="10" stroke-width="1.5" stroke-dasharray="" clip-path="url(#ArXRoJFURcLl)"/><path fill="none" stroke="rgb(205,205,205)" paint-order="fill" d="M 310 305.4777526855469 L 310 154.2920684814453" stroke-opacity="1" stroke-linecap="square" stroke-linejoin="bevel" stroke-miterlimit="10" stroke-width="1.5" stroke-dasharray="" clip-path="url(#ArXRoJFURcLl)"/><path fill="none" stroke="rgb(205,205,205)" paint-order="fill" d="M 349.4696960449219 307.01116943359375 L 349.4696960449219 177.70762634277344" stroke-opacity="1" stroke-linecap="square" stroke-linejoin="bevel" stroke-miterlimit="10" stroke-width="1.5" stroke-dasharray="" clip-path="url(#ArXRoJFURcLl)"/><path fill="none" stroke="rgb(205,205,205)" paint-order="fill" d="M 388.93939208984375 312.9168701171875 L 388.93939208984375 177.9148406982422" stroke-opacity="1" stroke-linecap="square" stroke-linejoin="bevel" stroke-miterlimit="10" stroke-width="1.5" stroke-dasharray="" clip-path="url(#ArXRoJFURcLl)"/><path fill="none" stroke="rgb(205,205,205)" paint-order="fill" d="M 428.4090881347656 303.32269287109375 L 428.4090881347656 153.67042541503906" stroke-opacity="1" stroke-linecap="square" stroke-linejoin="bevel" stroke-miterlimit="10" stroke-width="1.5" stroke-dasharray="" clip-path="url(#ArXRoJFURcLl)"/><path fill="none" stroke="rgb(205,205,205)" paint-order="fill" d="M 467.8787841796875 302.49383544921875 L 467.8787841796875 159.67971801757812" stroke-opacity="1" stroke-linecap="square" stroke-linejoin="bevel" stroke-miterlimit="10" stroke-width="1.5" stroke-dasharray="" clip-path="url(#ArXRoJFURcLl)"/><path fill="none" stroke="rgb(205,205,205)" paint-order="fill" d="M 507.3484802246094 301.62353515625 L 507.3484802246094 171.18028259277344" stroke-opacity="1" stroke-linecap="square" stroke-linejoin="bevel" stroke-miterlimit="10" stroke-width="1.5" stroke-dasharray="" clip-path="url(#ArXRoJFURcLl)"/><path fill="none" stroke="rgb(205,205,205)" paint-order="fill" d="M 546.8181762695312 303.28125 L 546.8181762695312 166.89088439941406" stroke-opacity="1" stroke-linecap="square" stroke-linejoin="bevel" stroke-miterlimit="10" stroke-width="1.5" stroke-dasharray="" clip-path="url(#ArXRoJFURcLl)"/><path fill="none" stroke="rgb(205,205,205)" paint-order="fill" d="M 73.18181610107422 276.4984436035156 L 73.18181610107422 177.03416442871094" stroke-opacity="1" stroke-linejoin="bevel" stroke-miterlimit="10" stroke-width="15" stroke-dasharray="" clip-path="url(#vpZfmHURiClb)"/><path fill="none" stroke="rgb(205,205,205)" paint-order="fill" d="M 112.6515121459961 274.6852722167969 L 112.6515121459961 175.16920471191406" stroke-opacity="1" stroke-linejoin="bevel" stroke-miterlimit="10" stroke-width="15" stroke-dasharray="" clip-path="url(#vpZfmHURiClb)"/><path fill="none" stroke="rgb(205,205,205)" paint-order="fill" d="M 152.1212158203125 275.9285888671875 L 152.1212158203125 188.4311065673828" stroke-opacity="1" stroke-linejoin="bevel" stroke-miterlimit="10" stroke-width="15" stroke-dasharray="" clip-path="url(#vpZfmHURiClb)"/><path fill="none" stroke="rgb(205,205,205)" paint-order="fill" d="M 191.59091186523438 275.72137451171875 L 191.59091186523438 188.6901397705078" stroke-opacity="1" stroke-linejoin="bevel" stroke-miterlimit="10" stroke-width="15" stroke-dasharray="" clip-path="url(#vpZfmHURiClb)"/><path fill="none" stroke="rgb(205,205,205)" paint-order="fill" d="M 231.06060791015625 277.5863342285156 L 231.06060791015625 204.3350372314453" stroke-opacity="1" stroke-linejoin="bevel" stroke-miterlimit="10" stroke-width="15" stroke-dasharray="" clip-path="url(#vpZfmHURiClb)"/><path fill="none" stroke="rgb(205,205,205)" paint-order="fill" d="M 270.5303039550781 278.2079772949219 L 270.5303039550781 212.10568237304688" stroke-opacity="1" stroke-linejoin="bevel" stroke-miterlimit="10" stroke-width="15" stroke-dasharray="" clip-path="url(#vpZfmHURiClb)"/><path fill="none" stroke="rgb(205,205,205)" paint-order="fill" d="M 310 279.0368347167969 L 310 207.0288543701172" stroke-opacity="1" stroke-linejoin="bevel" stroke-miterlimit="10" stroke-width="15" stroke-dasharray="" clip-path="url(#vpZfmHURiClb)"/><path fill="none" stroke="rgb(205,205,205)" paint-order="fill" d="M 349.4696960449219 280.2801513671875 L 349.4696960449219 219.20286560058594" stroke-opacity="1" stroke-linejoin="bevel" stroke-miterlimit="10" stroke-width="15" stroke-dasharray="" clip-path="url(#vpZfmHURiClb)"/><path fill="none" stroke="rgb(205,205,205)" paint-order="fill" d="M 388.93939208984375 284.83892822265625 L 388.93939208984375 236.7645263671875" stroke-opacity="1" stroke-linejoin="bevel" stroke-miterlimit="10" stroke-width="15" stroke-dasharray="" clip-path="url(#vpZfmHURiClb)"/><path fill="none" stroke="rgb(205,205,205)" paint-order="fill" d="M 428.4090881347656 281.9378967285156 L 428.4090881347656 226.1964569091797" stroke-opacity="1" stroke-linejoin="bevel" stroke-miterlimit="10" stroke-width="15" stroke-dasharray="" clip-path="url(#vpZfmHURiClb)"/><path fill="none" stroke="rgb(205,205,205)" paint-order="fill" d="M 467.8787841796875 282.3523254394531 L 467.8787841796875 226.40367126464844" stroke-opacity="1" stroke-linejoin="bevel" stroke-miterlimit="10" stroke-width="15" stroke-dasharray="" clip-path="url(#vpZfmHURiClb)"/><path fill="none" stroke="rgb(205,205,205)" paint-order="fill" d="M 507.3484802246094 283.5438232421875 L 507.3484802246094 228.3204345703125" stroke-opacity="1" stroke-linejoin="bevel" stroke-miterlimit="10" stroke-width="15" stroke-dasharray="" clip-path="url(#vpZfmHURiClb)"/><path fill="none" stroke="rgb(205,205,205)" paint-order="fill" d="M 546.8181762695312 284.42449951171875 L 546.8181762695312 235.41761779785156" stroke-opacity="1" stroke-linejoin="bevel" stroke-miterlimit="10" stroke-width="15" stroke-dasharray="" clip-path="url(#vpZfmHURiClb)"/><path fill="none" stroke="rgb(128,0,0)" paint-order="fill" d="M 402.095947265625 387.0384521484375 L 402.095947265625 -212.1923065185547" stroke-opacity="0.30196078431372547" stroke-linejoin="bevel" stroke-miterlimit="10" stroke-width="2" stroke-dasharray="" clip-path="url(#VaMRsmDmkgcy)"/><path fill="rgb(35,35,35)" stroke="rgb(35,35,35)" paint-order="fill" d="M 76.68181610107422 250.8553009033203 A 3.5 3.5 0 0 1 69.68181610107422 250.8553009033203 A 3.5 3.5 0 0 1 76.68181610107422 250.8553009033203" fill-opacity="1" clip-path="url(#iMISwDQFDXTR)" stroke-opacity="1" stroke-linejoin="bevel" stroke-miterlimit="10" stroke-dasharray=""/><path fill="rgb(35,35,35)" stroke="rgb(35,35,35)" paint-order="fill" d="M 116.1515121459961 228.89027404785156 A 3.5 3.5 0 0 1 109.1515121459961 228.89027404785156 A 3.5 3.5 0 0 1 116.1515121459961 228.89027404785156" fill-opacity="1" clip-path="url(#iMISwDQFDXTR)" stroke-opacity="1" stroke-linejoin="bevel" stroke-miterlimit="10" stroke-dasharray=""/><path fill="rgb(35,35,35)" stroke="rgb(35,35,35)" paint-order="fill" d="M 155.6212158203125 244.74240112304688 A 3.5 3.5 0 0 1 148.6212158203125 244.74240112304688 A 3.5 3.5 0 0 1 155.6212158203125 244.74240112304688" fill-opacity="1" clip-path="url(#iMISwDQFDXTR)" stroke-opacity="1" stroke-linejoin="bevel" stroke-miterlimit="10" stroke-dasharray=""/><path fill="rgb(35,35,35)" stroke="rgb(35,35,35)" paint-order="fill" d="M 195.09091186523438 242.77383422851562 A 3.5 3.5 0 0 1 188.09091186523438 242.77383422851562 A 3.5 3.5 0 0 1 195.09091186523438 242.77383422851562" fill-opacity="1" clip-path="url(#iMISwDQFDXTR)" stroke-opacity="1" stroke-linejoin="bevel" stroke-miterlimit="10" stroke-dasharray=""/><path fill="rgb(35,35,35)" stroke="rgb(35,35,35)" paint-order="fill" d="M 234.56060791015625 251.58056640625 A 3.5 3.5 0 0 1 227.56060791015625 251.58056640625 A 3.5 3.5 0 0 1 234.56060791015625 251.58056640625" fill-opacity="1" clip-path="url(#iMISwDQFDXTR)" stroke-opacity="1" stroke-linejoin="bevel" stroke-miterlimit="10" stroke-dasharray=""/><path fill="rgb(35,35,35)" stroke="rgb(35,35,35)" paint-order="fill" d="M 274.0303039550781 256.2429504394531 A 3.5 3.5 0 0 1 267.0303039550781 256.2429504394531 A 3.5 3.5 0 0 1 274.0303039550781 256.2429504394531" fill-opacity="1" clip-path="url(#iMISwDQFDXTR)" stroke-opacity="1" stroke-linejoin="bevel" stroke-miterlimit="10" stroke-dasharray=""/><path fill="rgb(35,35,35)" stroke="rgb(35,35,35)" paint-order="fill" d="M 313.5 257.90069580078125 A 3.5 3.5 0 0 1 306.5 257.90069580078125 A 3.5 3.5 0 0 1 313.5 257.90069580078125" fill-opacity="1" clip-path="url(#iMISwDQFDXTR)" stroke-opacity="1" stroke-linejoin="bevel" stroke-miterlimit="10" stroke-dasharray=""/><path fill="rgb(35,35,35)" stroke="rgb(35,35,35)" paint-order="fill" d="M 352.9696960449219 260.3872985839844 A 3.5 3.5 0 0 1 345.9696960449219 260.3872985839844 A 3.5 3.5 0 0 1 352.9696960449219 260.3872985839844" fill-opacity="1" clip-path="url(#iMISwDQFDXTR)" stroke-opacity="1" stroke-linejoin="bevel" stroke-miterlimit="10" stroke-dasharray=""/><path fill="rgb(35,35,35)" stroke="rgb(35,35,35)" paint-order="fill" d="M 392.43939208984375 273.4419860839844 A 3.5 3.5 0 0 1 385.43939208984375 273.4419860839844 A 3.5 3.5 0 0 1 392.43939208984375 273.4419860839844" fill-opacity="1" clip-path="url(#iMISwDQFDXTR)" stroke-opacity="1" stroke-linejoin="bevel" stroke-miterlimit="10" stroke-dasharray=""/><path fill="rgb(35,35,35)" stroke="rgb(35,35,35)" paint-order="fill" d="M 431.9090881347656 273.0275573730469 A 3.5 3.5 0 0 1 424.9090881347656 273.0275573730469 A 3.5 3.5 0 0 1 431.9090881347656 273.0275573730469" fill-opacity="1" clip-path="url(#iMISwDQFDXTR)" stroke-opacity="1" stroke-linejoin="bevel" stroke-miterlimit="10" stroke-dasharray=""/><path fill="rgb(35,35,35)" stroke="rgb(35,35,35)" paint-order="fill" d="M 471.3787841796875 275.0997314453125 A 3.5 3.5 0 0 1 464.3787841796875 275.0997314453125 A 3.5 3.5 0 0 1 471.3787841796875 275.0997314453125" fill-opacity="1" clip-path="url(#iMISwDQFDXTR)" stroke-opacity="1" stroke-linejoin="bevel" stroke-miterlimit="10" stroke-dasharray=""/><path fill="rgb(35,35,35)" stroke="rgb(35,35,35)" paint-order="fill" d="M 510.8484802246094 275.51416015625 A 3.5 3.5 0 0 1 503.8484802246094 275.51416015625 A 3.5 3.5 0 0 1 510.8484802246094 275.51416015625" fill-opacity="1" clip-path="url(#iMISwDQFDXTR)" stroke-opacity="1" stroke-linejoin="bevel" stroke-miterlimit="10" stroke-dasharray=""/><path fill="rgb(35,35,35)" stroke="rgb(35,35,35)" paint-order="fill" d="M 550.3181762695312 279.4512634277344 A 3.5 3.5 0 0 1 543.3181762695312 279.4512634277344 A 3.5 3.5 0 0 1 550.3181762695312 279.4512634277344" fill-opacity="1" clip-path="url(#iMISwDQFDXTR)" stroke-opacity="1" stroke-linejoin="bevel" stroke-miterlimit="10" stroke-dasharray=""/><path fill="none" stroke="rgb(35,35,35)" paint-order="fill" d="M 73.18181610107422 250.8553009033203 L 112.6515121459961 228.89027404785156 L 152.1212158203125 244.74240112304688 L 191.59091186523438 242.77383422851562 L 231.06060791015625 251.58056640625 L 270.5303039550781 256.2429504394531 L 310 257.90069580078125 L 349.4696960449219 260.3872985839844 L 388.93939208984375 273.4419860839844 L 428.4090881347656 273.0275573730469 L 467.8787841796875 275.0997314453125 L 507.3484802246094 275.51416015625 L 546.8181762695312 279.4512634277344" stroke-opacity="1" stroke-linejoin="bevel" stroke-miterlimit="10" stroke-dasharray="2,4" clip-path="url(#iOuzMVGrtnBO)"/><path fill="none" stroke="rgb(0,0,0)" paint-order="fill" d="M 49.5 355.5 L 570.5 355.5" stroke-opacity="1" stroke-linejoin="bevel" stroke-miterlimit="10" stroke-dasharray=""/><path fill="none" stroke="rgb(0,0,0)" paint-order="fill" d="M 73.5 361.5 L 73.5 353.5 M 112.5 361.5 L 112.5 353.5 M 152.5 361.5 L 152.5 353.5 M 191.5 361.5 L 191.5 353.5 M 231.5 361.5 L 231.5 353.5 M 270.5 361.5 L 270.5 353.5 M 310.5 361.5 L 310.5 353.5 M 349.5 361.5 L 349.5 353.5 M 388.5 361.5 L 388.5 353.5 M 428.5 361.5 L 428.5 353.5 M 467.5 361.5 L 467.5 353.5 M 507.5 361.5 L 507.5 353.5 M 546.5 361.5 L 546.5 353.5" stroke-opacity="1" stroke-linejoin="bevel" stroke-miterlimit="10" stroke-dasharray=""/><path fill="none" stroke="rgb(0,0,0)" paint-order="fill" d="" stroke-opacity="1" stroke-linejoin="bevel" stroke-miterlimit="10" stroke-dasharray=""/><text fill="rgb(68,68,68)" stroke="none" font-family="helvetica" font-size="11px" font-style="normal" font-weight="normal" text-decoration="normal" x="60.44646453857422" y="373.89013671875" text-anchor="start" dominant-baseline="alphabetic" transform="matrix(1, 0, 0, 1, 0.5, 0.5)" fill-opacity="1">2009</text><text fill="rgb(68,68,68)" stroke="none" font-family="helvetica" font-size="11px" font-style="normal" font-weight="normal" text-decoration="normal" x="99.9161605834961" y="373.89013671875" text-anchor="start" dominant-baseline="alphabetic" transform="matrix(1, 0, 0, 1, 0.5, 0.5)" fill-opacity="1">2010</text><text fill="rgb(68,68,68)" stroke="none" font-family="helvetica" font-size="11px" font-style="normal" font-weight="normal" text-decoration="normal" x="139.7913818359375" y="373.89013671875" text-anchor="start" dominant-baseline="alphabetic" transform="matrix(1, 0, 0, 1, 0.5, 0.5)" fill-opacity="1">2011</text><text fill="rgb(68,68,68)" stroke="none" font-family="helvetica" font-size="11px" font-style="normal" font-weight="normal" text-decoration="normal" x="178.85556030273438" y="373.89013671875" text-anchor="start" dominant-baseline="alphabetic" transform="matrix(1, 0, 0, 1, 0.5, 0.5)" fill-opacity="1">2012</text><text fill="rgb(68,68,68)" stroke="none" font-family="helvetica" font-size="11px" font-style="normal" font-weight="normal" text-decoration="normal" x="218.32525634765625" y="373.89013671875" text-anchor="start" dominant-baseline="alphabetic" transform="matrix(1, 0, 0, 1, 0.5, 0.5)" fill-opacity="1">2013</text><text fill="rgb(68,68,68)" stroke="none" font-family="helvetica" font-size="11px" font-style="normal" font-weight="normal" text-decoration="normal" x="257.7949523925781" y="373.89013671875" text-anchor="start" dominant-baseline="alphabetic" transform="matrix(1, 0, 0, 1, 0.5, 0.5)" fill-opacity="1">2014</text><text fill="rgb(68,68,68)" stroke="none" font-family="helvetica" font-size="11px" font-style="normal" font-weight="normal" text-decoration="normal" x="297.2646484375" y="373.89013671875" text-anchor="start" dominant-baseline="alphabetic" transform="matrix(1, 0, 0, 1, 0.5, 0.5)" fill-opacity="1">2015</text><text fill="rgb(68,68,68)" stroke="none" font-family="helvetica" font-size="11px" font-style="normal" font-weight="normal" text-decoration="normal" x="336.7343444824219" y="373.89013671875" text-anchor="start" dominant-baseline="alphabetic" transform="matrix(1, 0, 0, 1, 0.5, 0.5)" fill-opacity="1">2016</text><text fill="rgb(68,68,68)" stroke="none" font-family="helvetica" font-size="11px" font-style="normal" font-weight="normal" text-decoration="normal" x="376.20404052734375" y="373.89013671875" text-anchor="start" dominant-baseline="alphabetic" transform="matrix(1, 0, 0, 1, 0.5, 0.5)" fill-opacity="1">2017</text><text fill="rgb(68,68,68)" stroke="none" font-family="helvetica" font-size="11px" font-style="normal" font-weight="normal" text-decoration="normal" x="415.6737365722656" y="373.89013671875" text-anchor="start" dominant-baseline="alphabetic" transform="matrix(1, 0, 0, 1, 0.5, 0.5)" fill-opacity="1">2018</text><text fill="rgb(68,68,68)" stroke="none" font-family="helvetica" font-size="11px" font-style="normal" font-weight="normal" text-decoration="normal" x="455.1434326171875" y="373.89013671875" text-anchor="start" dominant-baseline="alphabetic" transform="matrix(1, 0, 0, 1, 0.5, 0.5)" fill-opacity="1">2019</text><text fill="rgb(68,68,68)" stroke="none" font-family="helvetica" font-size="11px" font-style="normal" font-weight="normal" text-decoration="normal" x="494.6131286621094" y="373.89013671875" text-anchor="start" dominant-baseline="alphabetic" transform="matrix(1, 0, 0, 1, 0.5, 0.5)" fill-opacity="1">2020</text><text fill="rgb(68,68,68)" stroke="none" font-family="helvetica" font-size="11px" font-style="normal" font-weight="normal" text-decoration="normal" x="534.0828247070312" y="373.89013671875" text-anchor="start" dominant-baseline="alphabetic" transform="matrix(1, 0, 0, 1, 0.5, 0.5)" fill-opacity="1">2021</text><text fill="rgb(68,68,68)" stroke="none" font-family="helvetica" font-size="13px" font-style="italic" font-weight="normal" text-decoration="normal" x="281.32275390625" y="393.89013671875" text-anchor="start" dominant-baseline="alphabetic" transform="matrix(1, 0, 0, 1, 0.5, 0.5)" fill-opacity="1">Start year</text><path fill="none" stroke="rgb(0,0,0)" paint-order="fill" d="M 49.5 355.5 L 49.5 27.5" stroke-opacity="1" stroke-linejoin="bevel" stroke-miterlimit="10" stroke-dasharray=""/><path fill="none" stroke="rgb(0,0,0)" paint-order="fill" d="M 43.5 355.5 L 51.5 355.5 M 43.5 279.5 L 51.5 279.5 M 43.5 204.5 L 51.5 204.5 M 43.5 128.5 L 51.5 128.5 M 43.5 52.5 L 51.5 52.5" stroke-opacity="1" stroke-linejoin="bevel" stroke-miterlimit="10" stroke-dasharray=""/><path fill="none" stroke="rgb(0,0,0)" paint-order="fill" d="" stroke-opacity="1" stroke-linejoin="bevel" stroke-miterlimit="10" stroke-dasharray=""/><text fill="rgb(68,68,68)" stroke="none" font-family="helvetica" font-size="11px" font-style="normal" font-weight="normal" text-decoration="normal" x="31.88232421875" y="358.945068359375" text-anchor="start" dominant-baseline="alphabetic" transform="matrix(1, 0, 0, 1, 0.5, 0.5)" fill-opacity="1">0</text><text fill="rgb(68,68,68)" stroke="none" font-family="helvetica" font-size="11px" font-style="normal" font-weight="normal" text-decoration="normal" x="25.7646484375" y="283.25274658203125" text-anchor="start" dominant-baseline="alphabetic" transform="matrix(1, 0, 0, 1, 0.5, 0.5)" fill-opacity="1">12</text><text fill="rgb(68,68,68)" stroke="none" font-family="helvetica" font-size="11px" font-style="normal" font-weight="normal" text-decoration="normal" x="25.7646484375" y="207.56045532226562" text-anchor="start" dominant-baseline="alphabetic" transform="matrix(1, 0, 0, 1, 0.5, 0.5)" fill-opacity="1">24</text><text fill="rgb(68,68,68)" stroke="none" font-family="helvetica" font-size="11px" font-style="normal" font-weight="normal" text-decoration="normal" x="25.7646484375" y="131.86814880371094" text-anchor="start" dominant-baseline="alphabetic" transform="matrix(1, 0, 0, 1, 0.5, 0.5)" fill-opacity="1">36</text><text fill="rgb(68,68,68)" stroke="none" font-family="helvetica" font-size="11px" font-style="normal" font-weight="normal" text-decoration="normal" x="25.7646484375" y="56.175838470458984" text-anchor="start" dominant-baseline="alphabetic" transform="matrix(1, 0, 0, 1, 0.5, 0.5)" fill-opacity="1">48</text><text fill="rgb(68,68,68)" stroke="none" font-family="helvetica" font-size="13px" font-style="italic" font-weight="normal" text-decoration="normal" x="-29.5634765625" y="188" text-anchor="start" dominant-baseline="alphabetic" transform="matrix(6.123233995736766e-17, -1, 1, 6.123233995736766e-17, -172.7353515625, 209.2646484375)" fill-opacity="1">months to report</text><path fill="rgb(255,255,255)" stroke="rgb(229,229,229)" paint-order="fill" d="M 342.30419921875 37.5 L 560.5 37.5 L 560.5 146.5 L 342.30419921875 146.5 L 342.30419921875 37.5" fill-opacity="0.9490196078431372" clip-path="url(#ffwDrVEJCFIx)" stroke-opacity="0.5019607843137255" stroke-linejoin="bevel" stroke-miterlimit="10" stroke-dasharray=""/><g clip-path="url(#ffwDrVEJCFIx)"><text fill="rgb(68,68,68)" stroke="none" font-family="helvetica" font-size="13px" font-style="normal" font-weight="normal" text-decoration="normal" x="376.80419921875" y="57" text-anchor="start" dominant-baseline="central" transform="matrix(1, 0, 0, 1, 0.5, 0.5)" fill-opacity="1">10th &amp; 90th percentile</text></g><path fill="none" stroke="rgb(205,205,205)" paint-order="fill" d="M 352.30419921875 57.5 L 372.30419921875 57.5" stroke-opacity="1" stroke-linecap="square" stroke-linejoin="bevel" stroke-miterlimit="10" stroke-width="1.5" stroke-dasharray="" clip-path="url(#ffwDrVEJCFIx)"/><g clip-path="url(#ffwDrVEJCFIx)"><text fill="rgb(68,68,68)" stroke="none" font-family="helvetica" font-size="13px" font-style="normal" font-weight="normal" text-decoration="normal" x="376.80419921875" y="80" text-anchor="start" dominant-baseline="central" transform="matrix(1, 0, 0, 1, 0.5, 0.5)" fill-opacity="1">25 &amp; 75th percentile</text></g><path fill="none" stroke="rgb(205,205,205)" paint-order="fill" d="M 352.30419921875 80.5 L 372.30419921875 80.5" stroke-opacity="1" stroke-linejoin="bevel" stroke-miterlimit="10" stroke-width="15" stroke-dasharray="" clip-path="url(#ffwDrVEJCFIx)"/><g clip-path="url(#ffwDrVEJCFIx)"><text fill="rgb(68,68,68)" stroke="none" font-family="helvetica" font-size="13px" font-style="normal" font-weight="normal" text-decoration="normal" x="376.80419921875" y="103" text-anchor="start" dominant-baseline="central" transform="matrix(1, 0, 0, 1, 0.5, 0.5)" fill-opacity="1">Final Rule in effect April 2017 </text></g><path fill="none" stroke="rgb(128,0,0)" paint-order="fill" d="M 352.30419921875 103.5 L 372.30419921875 103.5" stroke-opacity="0.30196078431372547" stroke-linejoin="bevel" stroke-miterlimit="10" stroke-width="2" stroke-dasharray="" clip-path="url(#ffwDrVEJCFIx)"/><g clip-path="url(#ffwDrVEJCFIx)"><text fill="rgb(68,68,68)" stroke="none" font-family="helvetica" font-size="13px" font-style="normal" font-weight="normal" text-decoration="normal" x="376.80419921875" y="126" text-anchor="start" dominant-baseline="central" transform="matrix(1, 0, 0, 1, 0.5, 0.5)" fill-opacity="1">median</text></g><path fill="rgb(35,35,35)" stroke="rgb(35,35,35)" paint-order="fill" d="M 366.30419921875 126.5 A 4 4 0 0 1 358.30419921875 126.5 A 4 4 0 0 1 366.30419921875 126.5" fill-opacity="1" clip-path="url(#ffwDrVEJCFIx)" stroke-opacity="1" stroke-linejoin="bevel" stroke-miterlimit="10" stroke-dasharray=""/><path fill="none" stroke="rgb(35,35,35)" paint-order="fill" d="M 352.30419921875 126.5 L 372.30419921875 126.5" stroke-opacity="1" stroke-linejoin="bevel" stroke-miterlimit="10" stroke-dasharray="2,4" clip-path="url(#ffwDrVEJCFIx)"/><text fill="rgb(68,68,68)" stroke="none" font-family="helvetica" font-size="13px" font-style="normal" font-weight="bold" text-decoration="normal" x="49" y="19" text-anchor="start" dominant-baseline="alphabetic" transform="matrix(1, 0, 0, 1, 0.5, 0.5)" fill-opacity="1">*Of those reported* within 36 months, quantiles of months to report</text></svg>