<svg version="1.1" xmlns="http://www.w3.org/2000/svg" width="500" height="450"><defs><clipPath id="ufreXJnstzgS"><path fill="none" stroke="none" d="M 104.5 27.5 L 470.5 27.5 L 470.5 400.5 L 104.5 400.5 L 104.5 27.5"/></clipPath><clipPath id="uAIDvsSJaCiC"><path fill="none" stroke="none" d="M 104.5 27.5 L 470.5 27.5 L 470.5 400.5 L 104.5 400.5 L 104.5 27.5"/></clipPath><clipPath id="UrXmONONNBSL"><path fill="none" stroke="none" d="M 104.5 27.5 L 470.5 27.5 L 470.5 400.5 L 104.5 400.5 L 104.5 27.5"/></clipPath><clipPath id="IcXyWhbqPdbE"><path fill="none" stroke="none" d="M 104.5 27.5 L 470.5 27.5 L 470.5 400.5 L 104.5 400.5 L 104.5 27.5"/></clipPath><clipPath id="GFoWQBUrzBNx"><path fill="none" stroke="none" d="M 104.5 27.5 L 470.5 27.5 L 470.5 400.5 L 104.5 400.5 L 104.5 27.5"/></clipPath><clipPath id="UVTPAxBpuWCO"><path fill="none" stroke="none" d="M 104.5 27.5 L 470.5 27.5 L 470.5 400.5 L 104.5 400.5 L 104.5 27.5"/></clipPath></defs><path fill="rgb(255,255,255)" stroke="none" paint-order="stroke" d="M 0.5 0.5 L 500.5 0.5 L 500.5 450.5 L 0.5 450.5 L 0.5 0.5" fill-opacity="1"/><rect fill="#FFFFFF" stroke="none" x="104" y="27" width="366" height="373" transform="matrix(1, 0, 0, 1, 0.5, 0.5)"/><path fill="rgb(255,255,255)" stroke="none" paint-order="stroke" d="M 104.5 27.5 L 470.5 27.5 L 470.5 400.5 L 104.5 400.5 L 104.5 27.5" fill-opacity="1"/><path fill="none" stroke="rgb(229,229,229)" paint-order="fill" d="M 104.5 27.5 L 470.5 27.5 L 470.5 400.5 L 104.5 400.5 L 104.5 27.5" stroke-opacity="1" stroke-linejoin="bevel" stroke-miterlimit="10" stroke-dasharray=""/><path fill="none" stroke="rgb(229,229,229)" paint-order="fill" d="M 67.5 400.5 L 67.5 27.5 M 141.5 400.5 L 141.5 27.5 M 177.5 400.5 L 177.5 27.5 M 214.5 400.5 L 214.5 27.5 M 250.5 400.5 L 250.5 27.5 M 287.5 400.5 L 287.5 27.5 M 324.5 400.5 L 324.5 27.5 M 360.5 400.5 L 360.5 27.5 M 397.5 400.5 L 397.5 27.5 M 433.5 400.5 L 433.5 27.5 M 507.5 400.5 L 507.5 27.5" stroke-opacity="1" stroke-linejoin="bevel" stroke-miterlimit="10" stroke-dasharray="" clip-path="url(#ufreXJnstzgS)"/><path fill="none" stroke="rgb(171,171,171)" paint-order="fill" d="M 248.03758239746094 69.14562225341797 L 331.2828063964844 69.14562225341797" stroke-opacity="1" stroke-linejoin="bevel" stroke-miterlimit="10" stroke-width="1.3" stroke-dasharray="2,4" clip-path="url(#UrXmONONNBSL)"/><path fill="none" stroke="rgb(171,171,171)" paint-order="fill" d="M 282.48480224609375 52.68490219116211 L 350.23187255859375 52.68490219116211" stroke-opacity="1" stroke-linejoin="bevel" stroke-miterlimit="10" stroke-width="1.3" stroke-dasharray="2,4" clip-path="url(#UrXmONONNBSL)"/><path fill="none" stroke="rgb(171,171,171)" paint-order="fill" d="M 217.04537963867188 85.6063461303711 L 228.34097290039062 85.6063461303711" stroke-opacity="1" stroke-linejoin="bevel" stroke-miterlimit="10" stroke-width="1.3" stroke-dasharray="2,4" clip-path="url(#UrXmONONNBSL)"/><path fill="none" stroke="rgb(171,171,171)" paint-order="fill" d="M 256.0575714111328 125.11209869384766 L 395.6617431640625 125.11209869384766" stroke-opacity="1" stroke-linejoin="bevel" stroke-miterlimit="10" stroke-width="1.3" stroke-dasharray="2,4" clip-path="url(#UrXmONONNBSL)"/><path fill="none" stroke="rgb(171,171,171)" paint-order="fill" d="M 304.70745849609375 141.57281494140625 L 417.20587158203125 141.57281494140625" stroke-opacity="1" stroke-linejoin="bevel" stroke-miterlimit="10" stroke-width="1.3" stroke-dasharray="2,4" clip-path="url(#UrXmONONNBSL)"/><path fill="none" stroke="rgb(171,171,171)" paint-order="fill" d="M 318.16485595703125 158.03353881835938 L 399.6271667480469 158.03353881835938" stroke-opacity="1" stroke-linejoin="bevel" stroke-miterlimit="10" stroke-width="1.3" stroke-dasharray="2,4" clip-path="url(#UrXmONONNBSL)"/><path fill="none" stroke="rgb(171,171,171)" paint-order="fill" d="" stroke-opacity="1" stroke-linejoin="bevel" stroke-miterlimit="10" stroke-width="1.3" stroke-dasharray="2,4" clip-path="url(#UrXmONONNBSL)"/><path fill="none" stroke="rgb(171,171,171)" paint-order="fill" d="M 297.16455078125 214 L 402.73095703125 214" stroke-opacity="1" stroke-linejoin="bevel" stroke-miterlimit="10" stroke-width="1.3" stroke-dasharray="2,4" clip-path="url(#UrXmONONNBSL)"/><path fill="none" stroke="rgb(171,171,171)" paint-order="fill" d="M 298.7596435546875 230.46072387695312 L 338.55828857421875 230.46072387695312" stroke-opacity="1" stroke-linejoin="bevel" stroke-miterlimit="10" stroke-width="1.3" stroke-dasharray="2,4" clip-path="url(#UrXmONONNBSL)"/><path fill="none" stroke="rgb(171,171,171)" paint-order="fill" d="M 291.8258056640625 197.53927612304688 L 416.453369140625 197.53927612304688" stroke-opacity="1" stroke-linejoin="bevel" stroke-miterlimit="10" stroke-width="1.3" stroke-dasharray="2,4" clip-path="url(#UrXmONONNBSL)"/><path fill="none" stroke="rgb(171,171,171)" paint-order="fill" d="M 148.99794006347656 246.92144775390625 L 170.99417114257812 246.92144775390625" stroke-opacity="1" stroke-linejoin="bevel" stroke-miterlimit="10" stroke-width="1.3" stroke-dasharray="2,4" clip-path="url(#UrXmONONNBSL)"/><path fill="none" stroke="rgb(171,171,171)" paint-order="fill" d="M 270.9002685546875 286.42718505859375 L 330.8519287109375 286.42718505859375" stroke-opacity="1" stroke-linejoin="bevel" stroke-miterlimit="10" stroke-width="1.3" stroke-dasharray="2,4" clip-path="url(#UrXmONONNBSL)"/><path fill="none" stroke="rgb(171,171,171)" paint-order="fill" d="M 213.7916717529297 302.8879089355469 L 239.86085510253906 302.8879089355469" stroke-opacity="1" stroke-linejoin="bevel" stroke-miterlimit="10" stroke-width="1.3" stroke-dasharray="2,4" clip-path="url(#UrXmONONNBSL)"/><path fill="none" stroke="rgb(171,171,171)" paint-order="fill" d="" stroke-opacity="1" stroke-linejoin="bevel" stroke-miterlimit="10" stroke-width="1.3" stroke-dasharray="2,4" clip-path="url(#UrXmONONNBSL)"/><path fill="none" stroke="rgb(171,171,171)" paint-order="fill" d="M 195.88070678710938 319.3486328125 L 217.7857208251953 319.3486328125" stroke-opacity="1" stroke-linejoin="bevel" stroke-miterlimit="10" stroke-width="1.3" stroke-dasharray="2,4" clip-path="url(#UrXmONONNBSL)"/><path fill="none" stroke="rgb(171,171,171)" paint-order="fill" d="M 250.30859375 358.8543701171875 L 275.9890441894531 358.8543701171875" stroke-opacity="1" stroke-linejoin="bevel" stroke-miterlimit="10" stroke-width="1.3" stroke-dasharray="2,4" clip-path="url(#UrXmONONNBSL)"/><path fill="none" stroke="rgb(171,171,171)" paint-order="fill" d="M 273.1503601074219 375.3150939941406 L 328.9530334472656 375.3150939941406" stroke-opacity="1" stroke-linejoin="bevel" stroke-miterlimit="10" stroke-width="1.3" stroke-dasharray="2,4" clip-path="url(#UrXmONONNBSL)"/><path fill="rgb(137,157,230)" stroke="rgb(137,157,230)" paint-order="fill" d="M 252.53758239746094 69.14562225341797 A 4.5 4.5 0 0 1 243.53758239746094 69.14562225341797 A 4.5 4.5 0 0 1 252.53758239746094 69.14562225341797" fill-opacity="1" clip-path="url(#IcXyWhbqPdbE)" stroke-opacity="1" stroke-linejoin="bevel" stroke-miterlimit="10" stroke-dasharray=""/><path fill="rgb(137,157,230)" stroke="rgb(137,157,230)" paint-order="fill" d="M 286.98480224609375 52.68490219116211 A 4.5 4.5 0 0 1 277.98480224609375 52.68490219116211 A 4.5 4.5 0 0 1 286.98480224609375 52.68490219116211" fill-opacity="1" clip-path="url(#IcXyWhbqPdbE)" stroke-opacity="1" stroke-linejoin="bevel" stroke-miterlimit="10" stroke-dasharray=""/><path fill="rgb(137,157,230)" stroke="rgb(137,157,230)" paint-order="fill" d="M 221.54537963867188 85.6063461303711 A 4.5 4.5 0 0 1 212.54537963867188 85.6063461303711 A 4.5 4.5 0 0 1 221.54537963867188 85.6063461303711" fill-opacity="1" clip-path="url(#IcXyWhbqPdbE)" stroke-opacity="1" stroke-linejoin="bevel" stroke-miterlimit="10" stroke-dasharray=""/><path fill="rgb(137,157,230)" stroke="rgb(137,157,230)" paint-order="fill" d="M 260.5575714111328 125.11209869384766 A 4.5 4.5 0 0 1 251.5575714111328 125.11209869384766 A 4.5 4.5 0 0 1 260.5575714111328 125.11209869384766" fill-opacity="1" clip-path="url(#IcXyWhbqPdbE)" stroke-opacity="1" stroke-linejoin="bevel" stroke-miterlimit="10" stroke-dasharray=""/><path fill="rgb(137,157,230)" stroke="rgb(137,157,230)" paint-order="fill" d="M 309.20745849609375 141.57281494140625 A 4.5 4.5 0 0 1 300.20745849609375 141.57281494140625 A 4.5 4.5 0 0 1 309.20745849609375 141.57281494140625" fill-opacity="1" clip-path="url(#IcXyWhbqPdbE)" stroke-opacity="1" stroke-linejoin="bevel" stroke-miterlimit="10" stroke-dasharray=""/><path fill="rgb(137,157,230)" stroke="rgb(137,157,230)" paint-order="fill" d="M 322.66485595703125 158.03353881835938 A 4.5 4.5 0 0 1 313.66485595703125 158.03353881835938 A 4.5 4.5 0 0 1 322.66485595703125 158.03353881835938" fill-opacity="1" clip-path="url(#IcXyWhbqPdbE)" stroke-opacity="1" stroke-linejoin="bevel" stroke-miterlimit="10" stroke-dasharray=""/><path fill="rgb(137,157,230)" stroke="rgb(137,157,230)" paint-order="fill" d="M 301.66455078125 214 A 4.5 4.5 0 0 1 292.66455078125 214 A 4.5 4.5 0 0 1 301.66455078125 214" fill-opacity="1" clip-path="url(#IcXyWhbqPdbE)" stroke-opacity="1" stroke-linejoin="bevel" stroke-miterlimit="10" stroke-dasharray=""/><path fill="rgb(137,157,230)" stroke="rgb(137,157,230)" paint-order="fill" d="M 303.2596435546875 230.46072387695312 A 4.5 4.5 0 0 1 294.2596435546875 230.46072387695312 A 4.5 4.5 0 0 1 303.2596435546875 230.46072387695312" fill-opacity="1" clip-path="url(#IcXyWhbqPdbE)" stroke-opacity="1" stroke-linejoin="bevel" stroke-miterlimit="10" stroke-dasharray=""/><path fill="rgb(137,157,230)" stroke="rgb(137,157,230)" paint-order="fill" d="M 296.3258056640625 197.53927612304688 A 4.5 4.5 0 0 1 287.3258056640625 197.53927612304688 A 4.5 4.5 0 0 1 296.3258056640625 197.53927612304688" fill-opacity="1" clip-path="url(#IcXyWhbqPdbE)" stroke-opacity="1" stroke-linejoin="bevel" stroke-miterlimit="10" stroke-dasharray=""/><path fill="rgb(137,157,230)" stroke="rgb(137,157,230)" paint-order="fill" d="M 153.49794006347656 246.92144775390625 A 4.5 4.5 0 0 1 144.49794006347656 246.92144775390625 A 4.5 4.5 0 0 1 153.49794006347656 246.92144775390625" fill-opacity="1" clip-path="url(#IcXyWhbqPdbE)" stroke-opacity="1" stroke-linejoin="bevel" stroke-miterlimit="10" stroke-dasharray=""/><path fill="rgb(137,157,230)" stroke="rgb(137,157,230)" paint-order="fill" d="M 275.4002685546875 286.42718505859375 A 4.5 4.5 0 0 1 266.4002685546875 286.42718505859375 A 4.5 4.5 0 0 1 275.4002685546875 286.42718505859375" fill-opacity="1" clip-path="url(#IcXyWhbqPdbE)" stroke-opacity="1" stroke-linejoin="bevel" stroke-miterlimit="10" stroke-dasharray=""/><path fill="rgb(137,157,230)" stroke="rgb(137,157,230)" paint-order="fill" d="M 218.2916717529297 302.8879089355469 A 4.5 4.5 0 0 1 209.2916717529297 302.8879089355469 A 4.5 4.5 0 0 1 218.2916717529297 302.8879089355469" fill-opacity="1" clip-path="url(#IcXyWhbqPdbE)" stroke-opacity="1" stroke-linejoin="bevel" stroke-miterlimit="10" stroke-dasharray=""/><path fill="rgb(137,157,230)" stroke="rgb(137,157,230)" paint-order="fill" d="M 200.38070678710938 319.3486328125 A 4.5 4.5 0 0 1 191.38070678710938 319.3486328125 A 4.5 4.5 0 0 1 200.38070678710938 319.3486328125" fill-opacity="1" clip-path="url(#IcXyWhbqPdbE)" stroke-opacity="1" stroke-linejoin="bevel" stroke-miterlimit="10" stroke-dasharray=""/><path fill="rgb(137,157,230)" stroke="rgb(137,157,230)" paint-order="fill" d="M 254.80859375 358.8543701171875 A 4.5 4.5 0 0 1 245.80859375 358.8543701171875 A 4.5 4.5 0 0 1 254.80859375 358.8543701171875" fill-opacity="1" clip-path="url(#IcXyWhbqPdbE)" stroke-opacity="1" stroke-linejoin="bevel" stroke-miterlimit="10" stroke-dasharray=""/><path fill="rgb(137,157,230)" stroke="rgb(137,157,230)" paint-order="fill" d="M 277.6503601074219 375.3150939941406 A 4.5 4.5 0 0 1 268.6503601074219 375.3150939941406 A 4.5 4.5 0 0 1 277.6503601074219 375.3150939941406" fill-opacity="1" clip-path="url(#IcXyWhbqPdbE)" stroke-opacity="1" stroke-linejoin="bevel" stroke-miterlimit="10" stroke-dasharray=""/><path fill="rgb(0,0,139)" stroke="rgb(0,0,139)" paint-order="fill" d="M 335.7828063964844 69.14562225341797 A 4.5 4.5 0 0 1 326.7828063964844 69.14562225341797 A 4.5 4.5 0 0 1 335.7828063964844 69.14562225341797" fill-opacity="1" clip-path="url(#GFoWQBUrzBNx)" stroke-opacity="1" stroke-linejoin="bevel" stroke-miterlimit="10" stroke-dasharray=""/><path fill="rgb(0,0,139)" stroke="rgb(0,0,139)" paint-order="fill" d="M 354.73187255859375 52.68490219116211 A 4.5 4.5 0 0 1 345.73187255859375 52.68490219116211 A 4.5 4.5 0 0 1 354.73187255859375 52.68490219116211" fill-opacity="1" clip-path="url(#GFoWQBUrzBNx)" stroke-opacity="1" stroke-linejoin="bevel" stroke-miterlimit="10" stroke-dasharray=""/><path fill="rgb(0,0,139)" stroke="rgb(0,0,139)" paint-order="fill" d="M 232.84097290039062 85.6063461303711 A 4.5 4.5 0 0 1 223.84097290039062 85.6063461303711 A 4.5 4.5 0 0 1 232.84097290039062 85.6063461303711" fill-opacity="1" clip-path="url(#GFoWQBUrzBNx)" stroke-opacity="1" stroke-linejoin="bevel" stroke-miterlimit="10" stroke-dasharray=""/><path fill="rgb(0,0,139)" stroke="rgb(0,0,139)" paint-order="fill" d="M 400.1617431640625 125.11209869384766 A 4.5 4.5 0 0 1 391.1617431640625 125.11209869384766 A 4.5 4.5 0 0 1 400.1617431640625 125.11209869384766" fill-opacity="1" clip-path="url(#GFoWQBUrzBNx)" stroke-opacity="1" stroke-linejoin="bevel" stroke-miterlimit="10" stroke-dasharray=""/><path fill="rgb(0,0,139)" stroke="rgb(0,0,139)" paint-order="fill" d="M 421.70587158203125 141.57281494140625 A 4.5 4.5 0 0 1 412.70587158203125 141.57281494140625 A 4.5 4.5 0 0 1 421.70587158203125 141.57281494140625" fill-opacity="1" clip-path="url(#GFoWQBUrzBNx)" stroke-opacity="1" stroke-linejoin="bevel" stroke-miterlimit="10" stroke-dasharray=""/><path fill="rgb(0,0,139)" stroke="rgb(0,0,139)" paint-order="fill" d="M 404.1271667480469 158.03353881835938 A 4.5 4.5 0 0 1 395.1271667480469 158.03353881835938 A 4.5 4.5 0 0 1 404.1271667480469 158.03353881835938" fill-opacity="1" clip-path="url(#GFoWQBUrzBNx)" stroke-opacity="1" stroke-linejoin="bevel" stroke-miterlimit="10" stroke-dasharray=""/><path fill="rgb(0,0,139)" stroke="rgb(0,0,139)" paint-order="fill" d="M 407.23095703125 214 A 4.5 4.5 0 0 1 398.23095703125 214 A 4.5 4.5 0 0 1 407.23095703125 214" fill-opacity="1" clip-path="url(#GFoWQBUrzBNx)" stroke-opacity="1" stroke-linejoin="bevel" stroke-miterlimit="10" stroke-dasharray=""/><path fill="rgb(0,0,139)" stroke="rgb(0,0,139)" paint-order="fill" d="M 343.05828857421875 230.46072387695312 A 4.5 4.5 0 0 1 334.05828857421875 230.46072387695312 A 4.5 4.5 0 0 1 343.05828857421875 230.46072387695312" fill-opacity="1" clip-path="url(#GFoWQBUrzBNx)" stroke-opacity="1" stroke-linejoin="bevel" stroke-miterlimit="10" stroke-dasharray=""/><path fill="rgb(0,0,139)" stroke="rgb(0,0,139)" paint-order="fill" d="M 420.953369140625 197.53927612304688 A 4.5 4.5 0 0 1 411.953369140625 197.53927612304688 A 4.5 4.5 0 0 1 420.953369140625 197.53927612304688" fill-opacity="1" clip-path="url(#GFoWQBUrzBNx)" stroke-opacity="1" stroke-linejoin="bevel" stroke-miterlimit="10" stroke-dasharray=""/><path fill="rgb(0,0,139)" stroke="rgb(0,0,139)" paint-order="fill" d="M 175.49417114257812 246.92144775390625 A 4.5 4.5 0 0 1 166.49417114257812 246.92144775390625 A 4.5 4.5 0 0 1 175.49417114257812 246.92144775390625" fill-opacity="1" clip-path="url(#GFoWQBUrzBNx)" stroke-opacity="1" stroke-linejoin="bevel" stroke-miterlimit="10" stroke-dasharray=""/><path fill="rgb(0,0,139)" stroke="rgb(0,0,139)" paint-order="fill" d="M 335.3519287109375 286.42718505859375 A 4.5 4.5 0 0 1 326.3519287109375 286.42718505859375 A 4.5 4.5 0 0 1 335.3519287109375 286.42718505859375" fill-opacity="1" clip-path="url(#GFoWQBUrzBNx)" stroke-opacity="1" stroke-linejoin="bevel" stroke-miterlimit="10" stroke-dasharray=""/><path fill="rgb(0,0,139)" stroke="rgb(0,0,139)" paint-order="fill" d="M 244.36085510253906 302.8879089355469 A 4.5 4.5 0 0 1 235.36085510253906 302.8879089355469 A 4.5 4.5 0 0 1 244.36085510253906 302.8879089355469" fill-opacity="1" clip-path="url(#GFoWQBUrzBNx)" stroke-opacity="1" stroke-linejoin="bevel" stroke-miterlimit="10" stroke-dasharray=""/><path fill="rgb(0,0,139)" stroke="rgb(0,0,139)" paint-order="fill" d="M 222.2857208251953 319.3486328125 A 4.5 4.5 0 0 1 213.2857208251953 319.3486328125 A 4.5 4.5 0 0 1 222.2857208251953 319.3486328125" fill-opacity="1" clip-path="url(#GFoWQBUrzBNx)" stroke-opacity="1" stroke-linejoin="bevel" stroke-miterlimit="10" stroke-dasharray=""/><path fill="rgb(0,0,139)" stroke="rgb(0,0,139)" paint-order="fill" d="M 280.4890441894531 358.8543701171875 A 4.5 4.5 0 0 1 271.4890441894531 358.8543701171875 A 4.5 4.5 0 0 1 280.4890441894531 358.8543701171875" fill-opacity="1" clip-path="url(#GFoWQBUrzBNx)" stroke-opacity="1" stroke-linejoin="bevel" stroke-miterlimit="10" stroke-dasharray=""/><path fill="rgb(0,0,139)" stroke="rgb(0,0,139)" paint-order="fill" d="M 333.4530334472656 375.3150939941406 A 4.5 4.5 0 0 1 324.4530334472656 375.3150939941406 A 4.5 4.5 0 0 1 333.4530334472656 375.3150939941406" fill-opacity="1" clip-path="url(#GFoWQBUrzBNx)" stroke-opacity="1" stroke-linejoin="bevel" stroke-miterlimit="10" stroke-dasharray=""/><path fill="none" stroke="rgb(0,0,0)" paint-order="fill" d="M 104.5 400.5 L 470.5 400.5" stroke-opacity="1" stroke-linejoin="bevel" stroke-miterlimit="10" stroke-dasharray=""/><path fill="none" stroke="rgb(0,0,0)" paint-order="fill" d="M 104.5 406.5 L 104.5 398.5 M 141.5 406.5 L 141.5 398.5 M 177.5 406.5 L 177.5 398.5 M 214.5 406.5 L 214.5 398.5 M 250.5 406.5 L 250.5 398.5 M 287.5 406.5 L 287.5 398.5 M 324.5 406.5 L 324.5 398.5 M 360.5 406.5 L 360.5 398.5 M 397.5 406.5 L 397.5 398.5 M 433.5 406.5 L 433.5 398.5 M 470.5 406.5 L 470.5 398.5" stroke-opacity="1" stroke-linejoin="bevel" stroke-miterlimit="10" stroke-dasharray=""/><path fill="none" stroke="rgb(0,0,0)" paint-order="fill" d="" stroke-opacity="1" stroke-linejoin="bevel" stroke-miterlimit="10" stroke-dasharray=""/><text fill="rgb(68,68,68)" stroke="none" font-family="helvetica" font-size="11px" font-style="normal" font-weight="normal" text-decoration="normal" x="96.05078125" y="421" text-anchor="start" dominant-baseline="alphabetic" transform="matrix(1, 0, 0, 1, 0.5, 0.5)" fill-opacity="1">0%</text><text fill="rgb(68,68,68)" stroke="none" font-family="helvetica" font-size="11px" font-style="normal" font-weight="normal" text-decoration="normal" x="129.59194946289062" y="421" text-anchor="start" dominant-baseline="alphabetic" transform="matrix(1, 0, 0, 1, 0.5, 0.5)" fill-opacity="1">10%</text><text fill="rgb(68,68,68)" stroke="none" font-family="helvetica" font-size="11px" font-style="normal" font-weight="normal" text-decoration="normal" x="166.1919403076172" y="421" text-anchor="start" dominant-baseline="alphabetic" transform="matrix(1, 0, 0, 1, 0.5, 0.5)" fill-opacity="1">20%</text><text fill="rgb(68,68,68)" stroke="none" font-family="helvetica" font-size="11px" font-style="normal" font-weight="normal" text-decoration="normal" x="202.7919464111328" y="421" text-anchor="start" dominant-baseline="alphabetic" transform="matrix(1, 0, 0, 1, 0.5, 0.5)" fill-opacity="1">30%</text><text fill="rgb(68,68,68)" stroke="none" font-family="helvetica" font-size="11px" font-style="normal" font-weight="normal" text-decoration="normal" x="239.39193725585938" y="421" text-anchor="start" dominant-baseline="alphabetic" transform="matrix(1, 0, 0, 1, 0.5, 0.5)" fill-opacity="1">40%</text><text fill="rgb(68,68,68)" stroke="none" font-family="helvetica" font-size="11px" font-style="normal" font-weight="normal" text-decoration="normal" x="275.991943359375" y="421" text-anchor="start" dominant-baseline="alphabetic" transform="matrix(1, 0, 0, 1, 0.5, 0.5)" fill-opacity="1">50%</text><text fill="rgb(68,68,68)" stroke="none" font-family="helvetica" font-size="11px" font-style="normal" font-weight="normal" text-decoration="normal" x="312.5919494628906" y="421" text-anchor="start" dominant-baseline="alphabetic" transform="matrix(1, 0, 0, 1, 0.5, 0.5)" fill-opacity="1">60%</text><text fill="rgb(68,68,68)" stroke="none" font-family="helvetica" font-size="11px" font-style="normal" font-weight="normal" text-decoration="normal" x="349.19195556640625" y="421" text-anchor="start" dominant-baseline="alphabetic" transform="matrix(1, 0, 0, 1, 0.5, 0.5)" fill-opacity="1">70%</text><text fill="rgb(68,68,68)" stroke="none" font-family="helvetica" font-size="11px" font-style="normal" font-weight="normal" text-decoration="normal" x="385.79193115234375" y="421" text-anchor="start" dominant-baseline="alphabetic" transform="matrix(1, 0, 0, 1, 0.5, 0.5)" fill-opacity="1">80%</text><text fill="rgb(68,68,68)" stroke="none" font-family="helvetica" font-size="11px" font-style="normal" font-weight="normal" text-decoration="normal" x="422.3919372558594" y="421" text-anchor="start" dominant-baseline="alphabetic" transform="matrix(1, 0, 0, 1, 0.5, 0.5)" fill-opacity="1">90%</text><text fill="rgb(68,68,68)" stroke="none" font-family="helvetica" font-size="11px" font-style="normal" font-weight="normal" text-decoration="normal" x="455.93310546875" y="421" text-anchor="start" dominant-baseline="alphabetic" transform="matrix(1, 0, 0, 1, 0.5, 0.5)" fill-opacity="1">100%</text><text fill="rgb(68,68,68)" stroke="none" font-family="helvetica" font-size="13px" font-style="italic" font-weight="normal" text-decoration="normal" x="203.17919921875" y="444" text-anchor="start" dominant-baseline="alphabetic" transform="matrix(1, 0, 0, 1, 0.5, 0.5)" fill-opacity="1">% reporting within 36 months</text><path fill="none" stroke="rgb(0,0,0)" paint-order="fill" d="M 104.5 400.5 L 104.5 27.5" stroke-opacity="1" stroke-linejoin="bevel" stroke-miterlimit="10" stroke-dasharray=""/><path fill="none" stroke="rgb(0,0,0)" paint-order="fill" d="M 98.5 375.5 L 106.5 375.5 M 98.5 358.5 L 106.5 358.5 M 98.5 319.5 L 106.5 319.5 M 98.5 302.5 L 106.5 302.5 M 98.5 286.5 L 106.5 286.5 M 98.5 246.5 L 106.5 246.5 M 98.5 230.5 L 106.5 230.5 M 98.5 214.5 L 106.5 214.5 M 98.5 197.5 L 106.5 197.5 M 98.5 158.5 L 106.5 158.5 M 98.5 141.5 L 106.5 141.5 M 98.5 125.5 L 106.5 125.5 M 98.5 85.5 L 106.5 85.5 M 98.5 69.5 L 106.5 69.5 M 98.5 52.5 L 106.5 52.5" stroke-opacity="1" stroke-linejoin="bevel" stroke-miterlimit="10" stroke-dasharray=""/><path fill="none" stroke="rgb(0,0,0)" paint-order="fill" d="" stroke-opacity="1" stroke-linejoin="bevel" stroke-miterlimit="10" stroke-dasharray=""/><text fill="rgb(68,68,68)" stroke="none" font-family="helvetica" font-size="11px" font-style="normal" font-weight="normal" text-decoration="normal" x="38.58544921875" y="378.3150939941406" text-anchor="start" dominant-baseline="alphabetic" transform="matrix(1, 0, 0, 1, 0.5, 0.5)" fill-opacity="1">Terminated</text><text fill="rgb(68,68,68)" stroke="none" font-family="helvetica" font-size="11px" font-style="normal" font-weight="normal" text-decoration="normal" x="39.8046875" y="361.8543701171875" text-anchor="start" dominant-baseline="alphabetic" transform="matrix(1, 0, 0, 1, 0.5, 0.5)" fill-opacity="1">Completed</text><text fill="rgb(68,68,68)" stroke="none" font-family="helvetica" font-size="11px" font-style="normal" font-weight="normal" text-decoration="normal" x="65.4892578125" y="322.3486328125" text-anchor="start" dominant-baseline="alphabetic" transform="matrix(1, 0, 0, 1, 0.5, 0.5)" fill-opacity="1">Other</text><text fill="rgb(68,68,68)" stroke="none" font-family="helvetica" font-size="11px" font-style="normal" font-weight="normal" text-decoration="normal" x="40.41162109375" y="305.8879089355469" text-anchor="start" dominant-baseline="alphabetic" transform="matrix(1, 0, 0, 1, 0.5, 0.5)" fill-opacity="1">Prevention</text><text fill="rgb(68,68,68)" stroke="none" font-family="helvetica" font-size="11px" font-style="normal" font-weight="normal" text-decoration="normal" x="43.2744140625" y="289.42718505859375" text-anchor="start" dominant-baseline="alphabetic" transform="matrix(1, 0, 0, 1, 0.5, 0.5)" fill-opacity="1">Treatment</text><text fill="rgb(68,68,68)" stroke="none" font-family="helvetica" font-size="11px" font-style="normal" font-weight="normal" text-decoration="normal" x="65.4892578125" y="249.92144775390625" text-anchor="start" dominant-baseline="alphabetic" transform="matrix(1, 0, 0, 1, 0.5, 0.5)" fill-opacity="1">Other</text><text fill="rgb(68,68,68)" stroke="none" font-family="helvetica" font-size="11px" font-style="normal" font-weight="normal" text-decoration="normal" x="59.376953125" y="233.46072387695312" text-anchor="start" dominant-baseline="alphabetic" transform="matrix(1, 0, 0, 1, 0.5, 0.5)" fill-opacity="1">Device</text><text fill="rgb(68,68,68)" stroke="none" font-family="helvetica" font-size="11px" font-style="normal" font-weight="normal" text-decoration="normal" x="69.15771484375" y="217" text-anchor="start" dominant-baseline="alphabetic" transform="matrix(1, 0, 0, 1, 0.5, 0.5)" fill-opacity="1">Drug</text><text fill="rgb(68,68,68)" stroke="none" font-family="helvetica" font-size="11px" font-style="normal" font-weight="normal" text-decoration="normal" x="45.9169921875" y="200.53927612304688" text-anchor="start" dominant-baseline="alphabetic" transform="matrix(1, 0, 0, 1, 0.5, 0.5)" fill-opacity="1">Biological</text><text fill="rgb(68,68,68)" stroke="none" font-family="helvetica" font-size="11px" font-style="normal" font-weight="normal" text-decoration="normal" x="52.63623046875" y="161.03353881835938" text-anchor="start" dominant-baseline="alphabetic" transform="matrix(1, 0, 0, 1, 0.5, 0.5)" fill-opacity="1">Phase 4</text><text fill="rgb(68,68,68)" stroke="none" font-family="helvetica" font-size="11px" font-style="normal" font-weight="normal" text-decoration="normal" x="23.8955078125" y="144.57281494140625" text-anchor="start" dominant-baseline="alphabetic" transform="matrix(1, 0, 0, 1, 0.5, 0.5)" fill-opacity="1">Phase 2/3 &amp; 3</text><text fill="rgb(68,68,68)" stroke="none" font-family="helvetica" font-size="11px" font-style="normal" font-weight="normal" text-decoration="normal" x="23.8955078125" y="128.11209106445312" text-anchor="start" dominant-baseline="alphabetic" transform="matrix(1, 0, 0, 1, 0.5, 0.5)" fill-opacity="1">Phase 1/2 &amp; 2</text><text fill="rgb(68,68,68)" stroke="none" font-family="helvetica" font-size="11px" font-style="normal" font-weight="normal" text-decoration="normal" x="65.4892578125" y="88.60635375976562" text-anchor="start" dominant-baseline="alphabetic" transform="matrix(1, 0, 0, 1, 0.5, 0.5)" fill-opacity="1">Other</text><text fill="rgb(68,68,68)" stroke="none" font-family="helvetica" font-size="11px" font-style="normal" font-weight="normal" text-decoration="normal" x="74.05615234375" y="72.1456298828125" text-anchor="start" dominant-baseline="alphabetic" transform="matrix(1, 0, 0, 1, 0.5, 0.5)" fill-opacity="1">NIH</text><text fill="rgb(68,68,68)" stroke="none" font-family="helvetica" font-size="11px" font-style="normal" font-weight="normal" text-decoration="normal" x="53.87158203125" y="55.684906005859375" text-anchor="start" dominant-baseline="alphabetic" transform="matrix(1, 0, 0, 1, 0.5, 0.5)" fill-opacity="1">Industry</text><text fill="rgb(128,128,128)" stroke="none" font-family="helvetica" font-size="11px" font-style="normal" font-weight="bold" text-decoration="normal" x="-0.3037109375" y="363.584716796875" text-anchor="start" dominant-baseline="alphabetic" transform="matrix(6.123233995736766e-17, -1, 1, 6.123233995736766e-17, -350.189208984375, 382.980224609375)" fill-opacity="1">status</text><text fill="rgb(128,128,128)" stroke="none" font-family="helvetica" font-size="11px" font-style="normal" font-weight="bold" text-decoration="normal" x="-5.801025390625" y="299.3879089355469" text-anchor="start" dominant-baseline="alphabetic" transform="matrix(6.123233995736766e-17, -1, 1, 6.123233995736766e-17, -285.9924011230469, 318.7834167480469)" fill-opacity="1">purpose</text><text fill="rgb(128,128,128)" stroke="none" font-family="helvetica" font-size="11px" font-style="normal" font-weight="bold" text-decoration="normal" x="-15.5791015625" y="218.73036193847656" text-anchor="start" dominant-baseline="alphabetic" transform="matrix(6.123233995736766e-17, -1, 1, 6.123233995736766e-17, -205.33485412597656, 238.12586975097656)" fill-opacity="1">intervention</text><text fill="rgb(128,128,128)" stroke="none" font-family="helvetica" font-size="11px" font-style="normal" font-weight="bold" text-decoration="normal" x="-0.000244140625" y="138.07281494140625" text-anchor="start" dominant-baseline="alphabetic" transform="matrix(6.123233995736766e-17, -1, 1, 6.123233995736766e-17, -124.67730712890625, 157.46832275390625)" fill-opacity="1">phase</text><text fill="rgb(128,128,128)" stroke="none" font-family="helvetica" font-size="11px" font-style="normal" font-weight="bold" text-decoration="normal" x="-4.26220703125" y="65.6456298828125" text-anchor="start" dominant-baseline="alphabetic" transform="matrix(6.123233995736766e-17, -1, 1, 6.123233995736766e-17, -52.2501220703125, 85.0411376953125)" fill-opacity="1">funding</text><path fill="none" stroke="rgb(211,211,211)" paint-order="fill" d="M 12.5 339.5 L 101.5 339.5 M 12.5 266.5 L 101.5 266.5 M 12.5 177.5 L 101.5 177.5 M 12.5 105.5 L 101.5 105.5" stroke-opacity="1" stroke-linejoin="bevel" stroke-miterlimit="10" stroke-width="2" stroke-dasharray=""/><text fill="rgb(68,68,68)" stroke="none" font-family="helvetica" font-size="13px" font-style="normal" font-weight="bold" text-decoration="normal" x="104" y="19" text-anchor="start" dominant-baseline="alphabetic" transform="matrix(1, 0, 0, 1, 0.5, 0.5)" fill-opacity="1">Results reported within 36 months</text></svg>