<svg version="1.1" xmlns="http://www.w3.org/2000/svg" width="500" height="450"><defs><clipPath id="sJprgCUCMnsU"><path fill="none" stroke="none" d="M 104.5 27.5 L 470.5 27.5 L 470.5 400.5 L 104.5 400.5 L 104.5 27.5"/></clipPath><clipPath id="KXsvefSLqIdq"><path fill="none" stroke="none" d="M 104.5 27.5 L 470.5 27.5 L 470.5 400.5 L 104.5 400.5 L 104.5 27.5"/></clipPath><clipPath id="bgxLiszdMhGa"><path fill="none" stroke="none" d="M 104.5 27.5 L 470.5 27.5 L 470.5 400.5 L 104.5 400.5 L 104.5 27.5"/></clipPath><clipPath id="MTImzvTmitUt"><path fill="none" stroke="none" d="M 104.5 27.5 L 470.5 27.5 L 470.5 400.5 L 104.5 400.5 L 104.5 27.5"/></clipPath><clipPath id="aChUDgiUxGQI"><path fill="none" stroke="none" d="M 104.5 27.5 L 470.5 27.5 L 470.5 400.5 L 104.5 400.5 L 104.5 27.5"/></clipPath><clipPath id="CPfiQBzEESFr"><path fill="none" stroke="none" d="M 104.5 27.5 L 470.5 27.5 L 470.5 400.5 L 104.5 400.5 L 104.5 27.5"/></clipPath></defs><path fill="rgb(255,255,255)" stroke="none" paint-order="stroke" d="M 0.5 0.5 L 500.5 0.5 L 500.5 450.5 L 0.5 450.5 L 0.5 0.5" fill-opacity="1"/><rect fill="#FFFFFF" stroke="none" x="104" y="27" width="366" height="373" transform="matrix(1, 0, 0, 1, 0.5, 0.5)"/><path fill="rgb(255,255,255)" stroke="none" paint-order="stroke" d="M 104.5 27.5 L 470.5 27.5 L 470.5 400.5 L 104.5 400.5 L 104.5 27.5" fill-opacity="1"/><path fill="none" stroke="rgb(229,229,229)" paint-order="fill" d="M 104.5 27.5 L 470.5 27.5 L 470.5 400.5 L 104.5 400.5 L 104.5 27.5" stroke-opacity="1" stroke-linejoin="bevel" stroke-miterlimit="10" stroke-dasharray=""/><path fill="none" stroke="rgb(229,229,229)" paint-order="fill" d="M 67.5 400.5 L 67.5 27.5 M 141.5 400.5 L 141.5 27.5 M 177.5 400.5 L 177.5 27.5 M 214.5 400.5 L 214.5 27.5 M 250.5 400.5 L 250.5 27.5 M 287.5 400.5 L 287.5 27.5 M 324.5 400.5 L 324.5 27.5 M 360.5 400.5 L 360.5 27.5 M 397.5 400.5 L 397.5 27.5 M 433.5 400.5 L 433.5 27.5 M 507.5 400.5 L 507.5 27.5" stroke-opacity="1" stroke-linejoin="bevel" stroke-miterlimit="10" stroke-dasharray="" clip-path="url(#sJprgCUCMnsU)"/><path fill="none" stroke="rgb(171,171,171)" paint-order="fill" d="M 132.98519897460938 69.14562225341797 L 222.33021545410156 69.14562225341797" stroke-opacity="1" stroke-linejoin="bevel" stroke-miterlimit="10" stroke-width="1.3" stroke-dasharray="2,4" clip-path="url(#bgxLiszdMhGa)"/><path fill="none" stroke="rgb(171,171,171)" paint-order="fill" d="M 141.95040893554688 52.68490219116211 L 219.76498413085938 52.68490219116211" stroke-opacity="1" stroke-linejoin="bevel" stroke-miterlimit="10" stroke-width="1.3" stroke-dasharray="2,4" clip-path="url(#bgxLiszdMhGa)"/><path fill="none" stroke="rgb(171,171,171)" paint-order="fill" d="M 125.58329772949219 85.6063461303711 L 161.28700256347656 85.6063461303711" stroke-opacity="1" stroke-linejoin="bevel" stroke-miterlimit="10" stroke-width="1.3" stroke-dasharray="2,4" clip-path="url(#bgxLiszdMhGa)"/><path fill="none" stroke="rgb(171,171,171)" paint-order="fill" d="M 134.6098175048828 125.11209869384766 L 241.14495849609375 125.11209869384766" stroke-opacity="1" stroke-linejoin="bevel" stroke-miterlimit="10" stroke-width="1.3" stroke-dasharray="2,4" clip-path="url(#bgxLiszdMhGa)"/><path fill="none" stroke="rgb(171,171,171)" paint-order="fill" d="M 144.9238739013672 141.57281494140625 L 248.5 141.57281494140625" stroke-opacity="1" stroke-linejoin="bevel" stroke-miterlimit="10" stroke-width="1.3" stroke-dasharray="2,4" clip-path="url(#bgxLiszdMhGa)"/><path fill="none" stroke="rgb(171,171,171)" paint-order="fill" d="M 157.9162139892578 158.03353881835938 L 252.5924835205078 158.03353881835938" stroke-opacity="1" stroke-linejoin="bevel" stroke-miterlimit="10" stroke-width="1.3" stroke-dasharray="2,4" clip-path="url(#bgxLiszdMhGa)"/><path fill="none" stroke="rgb(171,171,171)" paint-order="fill" d="" stroke-opacity="1" stroke-linejoin="bevel" stroke-miterlimit="10" stroke-width="1.3" stroke-dasharray="2,4" clip-path="url(#bgxLiszdMhGa)"/><path fill="none" stroke="rgb(171,171,171)" paint-order="fill" d="M 143.254638671875 214 L 243.3438720703125 214" stroke-opacity="1" stroke-linejoin="bevel" stroke-miterlimit="10" stroke-width="1.3" stroke-dasharray="2,4" clip-path="url(#bgxLiszdMhGa)"/><path fill="none" stroke="rgb(171,171,171)" paint-order="fill" d="M 137.90771484375 230.46072387695312 L 214.1222381591797 230.46072387695312" stroke-opacity="1" stroke-linejoin="bevel" stroke-miterlimit="10" stroke-width="1.3" stroke-dasharray="2,4" clip-path="url(#bgxLiszdMhGa)"/><path fill="none" stroke="rgb(171,171,171)" paint-order="fill" d="M 143.6202392578125 197.53927612304688 L 270.4326477050781 197.53927612304688" stroke-opacity="1" stroke-linejoin="bevel" stroke-miterlimit="10" stroke-width="1.3" stroke-dasharray="2,4" clip-path="url(#bgxLiszdMhGa)"/><path fill="none" stroke="rgb(171,171,171)" paint-order="fill" d="M 115.7574462890625 246.92144775390625 L 135.6112060546875 246.92144775390625" stroke-opacity="1" stroke-linejoin="bevel" stroke-miterlimit="10" stroke-width="1.3" stroke-dasharray="2,4" clip-path="url(#bgxLiszdMhGa)"/><path fill="none" stroke="rgb(171,171,171)" paint-order="fill" d="M 138.57888793945312 286.42718505859375 L 212.3544158935547 286.42718505859375" stroke-opacity="1" stroke-linejoin="bevel" stroke-miterlimit="10" stroke-width="1.3" stroke-dasharray="2,4" clip-path="url(#bgxLiszdMhGa)"/><path fill="none" stroke="rgb(171,171,171)" paint-order="fill" d="M 126.10416412353516 302.8879089355469 L 174.15170288085938 302.8879089355469" stroke-opacity="1" stroke-linejoin="bevel" stroke-miterlimit="10" stroke-width="1.3" stroke-dasharray="2,4" clip-path="url(#bgxLiszdMhGa)"/><path fill="none" stroke="rgb(171,171,171)" paint-order="fill" d="" stroke-opacity="1" stroke-linejoin="bevel" stroke-miterlimit="10" stroke-width="1.3" stroke-dasharray="2,4" clip-path="url(#bgxLiszdMhGa)"/><path fill="none" stroke="rgb(171,171,171)" paint-order="fill" d="M 121.20143127441406 319.3486328125 L 155.45436096191406 319.3486328125" stroke-opacity="1" stroke-linejoin="bevel" stroke-miterlimit="10" stroke-width="1.3" stroke-dasharray="2,4" clip-path="url(#bgxLiszdMhGa)"/><path fill="none" stroke="rgb(171,171,171)" paint-order="fill" d="M 133.521484375 358.8543701171875 L 183.72384643554688 358.8543701171875" stroke-opacity="1" stroke-linejoin="bevel" stroke-miterlimit="10" stroke-width="1.3" stroke-dasharray="2,4" clip-path="url(#bgxLiszdMhGa)"/><path fill="none" stroke="rgb(171,171,171)" paint-order="fill" d="M 141.30258178710938 375.3150939941406 L 218.18692016601562 375.3150939941406" stroke-opacity="1" stroke-linejoin="bevel" stroke-miterlimit="10" stroke-width="1.3" stroke-dasharray="2,4" clip-path="url(#bgxLiszdMhGa)"/><path fill="rgb(137,157,230)" stroke="rgb(137,157,230)" paint-order="fill" d="M 137.48519897460938 69.14562225341797 A 4.5 4.5 0 0 1 128.48519897460938 69.14562225341797 A 4.5 4.5 0 0 1 137.48519897460938 69.14562225341797" fill-opacity="1" clip-path="url(#MTImzvTmitUt)" stroke-opacity="1" stroke-linejoin="bevel" stroke-miterlimit="10" stroke-dasharray=""/><path fill="rgb(137,157,230)" stroke="rgb(137,157,230)" paint-order="fill" d="M 146.45040893554688 52.68490219116211 A 4.5 4.5 0 0 1 137.45040893554688 52.68490219116211 A 4.5 4.5 0 0 1 146.45040893554688 52.68490219116211" fill-opacity="1" clip-path="url(#MTImzvTmitUt)" stroke-opacity="1" stroke-linejoin="bevel" stroke-miterlimit="10" stroke-dasharray=""/><path fill="rgb(137,157,230)" stroke="rgb(137,157,230)" paint-order="fill" d="M 130.0832977294922 85.6063461303711 A 4.5 4.5 0 0 1 121.08329772949219 85.6063461303711 A 4.5 4.5 0 0 1 130.0832977294922 85.6063461303711" fill-opacity="1" clip-path="url(#MTImzvTmitUt)" stroke-opacity="1" stroke-linejoin="bevel" stroke-miterlimit="10" stroke-dasharray=""/><path fill="rgb(137,157,230)" stroke="rgb(137,157,230)" paint-order="fill" d="M 139.1098175048828 125.11209869384766 A 4.5 4.5 0 0 1 130.1098175048828 125.11209869384766 A 4.5 4.5 0 0 1 139.1098175048828 125.11209869384766" fill-opacity="1" clip-path="url(#MTImzvTmitUt)" stroke-opacity="1" stroke-linejoin="bevel" stroke-miterlimit="10" stroke-dasharray=""/><path fill="rgb(137,157,230)" stroke="rgb(137,157,230)" paint-order="fill" d="M 149.4238739013672 141.57281494140625 A 4.5 4.5 0 0 1 140.4238739013672 141.57281494140625 A 4.5 4.5 0 0 1 149.4238739013672 141.57281494140625" fill-opacity="1" clip-path="url(#MTImzvTmitUt)" stroke-opacity="1" stroke-linejoin="bevel" stroke-miterlimit="10" stroke-dasharray=""/><path fill="rgb(137,157,230)" stroke="rgb(137,157,230)" paint-order="fill" d="M 162.4162139892578 158.03353881835938 A 4.5 4.5 0 0 1 153.4162139892578 158.03353881835938 A 4.5 4.5 0 0 1 162.4162139892578 158.03353881835938" fill-opacity="1" clip-path="url(#MTImzvTmitUt)" stroke-opacity="1" stroke-linejoin="bevel" stroke-miterlimit="10" stroke-dasharray=""/><path fill="rgb(137,157,230)" stroke="rgb(137,157,230)" paint-order="fill" d="M 147.754638671875 214 A 4.5 4.5 0 0 1 138.754638671875 214 A 4.5 4.5 0 0 1 147.754638671875 214" fill-opacity="1" clip-path="url(#MTImzvTmitUt)" stroke-opacity="1" stroke-linejoin="bevel" stroke-miterlimit="10" stroke-dasharray=""/><path fill="rgb(137,157,230)" stroke="rgb(137,157,230)" paint-order="fill" d="M 142.40771484375 230.46072387695312 A 4.5 4.5 0 0 1 133.40771484375 230.46072387695312 A 4.5 4.5 0 0 1 142.40771484375 230.46072387695312" fill-opacity="1" clip-path="url(#MTImzvTmitUt)" stroke-opacity="1" stroke-linejoin="bevel" stroke-miterlimit="10" stroke-dasharray=""/><path fill="rgb(137,157,230)" stroke="rgb(137,157,230)" paint-order="fill" d="M 148.1202392578125 197.53927612304688 A 4.5 4.5 0 0 1 139.1202392578125 197.53927612304688 A 4.5 4.5 0 0 1 148.1202392578125 197.53927612304688" fill-opacity="1" clip-path="url(#MTImzvTmitUt)" stroke-opacity="1" stroke-linejoin="bevel" stroke-miterlimit="10" stroke-dasharray=""/><path fill="rgb(137,157,230)" stroke="rgb(137,157,230)" paint-order="fill" d="M 120.2574462890625 246.92144775390625 A 4.5 4.5 0 0 1 111.2574462890625 246.92144775390625 A 4.5 4.5 0 0 1 120.2574462890625 246.92144775390625" fill-opacity="1" clip-path="url(#MTImzvTmitUt)" stroke-opacity="1" stroke-linejoin="bevel" stroke-miterlimit="10" stroke-dasharray=""/><path fill="rgb(137,157,230)" stroke="rgb(137,157,230)" paint-order="fill" d="M 143.07888793945312 286.42718505859375 A 4.5 4.5 0 0 1 134.07888793945312 286.42718505859375 A 4.5 4.5 0 0 1 143.07888793945312 286.42718505859375" fill-opacity="1" clip-path="url(#MTImzvTmitUt)" stroke-opacity="1" stroke-linejoin="bevel" stroke-miterlimit="10" stroke-dasharray=""/><path fill="rgb(137,157,230)" stroke="rgb(137,157,230)" paint-order="fill" d="M 130.60416412353516 302.8879089355469 A 4.5 4.5 0 0 1 121.60416412353516 302.8879089355469 A 4.5 4.5 0 0 1 130.60416412353516 302.8879089355469" fill-opacity="1" clip-path="url(#MTImzvTmitUt)" stroke-opacity="1" stroke-linejoin="bevel" stroke-miterlimit="10" stroke-dasharray=""/><path fill="rgb(137,157,230)" stroke="rgb(137,157,230)" paint-order="fill" d="M 125.70143127441406 319.3486328125 A 4.5 4.5 0 0 1 116.70143127441406 319.3486328125 A 4.5 4.5 0 0 1 125.70143127441406 319.3486328125" fill-opacity="1" clip-path="url(#MTImzvTmitUt)" stroke-opacity="1" stroke-linejoin="bevel" stroke-miterlimit="10" stroke-dasharray=""/><path fill="rgb(137,157,230)" stroke="rgb(137,157,230)" paint-order="fill" d="M 138.021484375 358.8543701171875 A 4.5 4.5 0 0 1 129.021484375 358.8543701171875 A 4.5 4.5 0 0 1 138.021484375 358.8543701171875" fill-opacity="1" clip-path="url(#MTImzvTmitUt)" stroke-opacity="1" stroke-linejoin="bevel" stroke-miterlimit="10" stroke-dasharray=""/><path fill="rgb(137,157,230)" stroke="rgb(137,157,230)" paint-order="fill" d="M 145.80258178710938 375.3150939941406 A 4.5 4.5 0 0 1 136.80258178710938 375.3150939941406 A 4.5 4.5 0 0 1 145.80258178710938 375.3150939941406" fill-opacity="1" clip-path="url(#MTImzvTmitUt)" stroke-opacity="1" stroke-linejoin="bevel" stroke-miterlimit="10" stroke-dasharray=""/><path fill="rgb(0,0,139)" stroke="rgb(0,0,139)" paint-order="fill" d="M 226.83021545410156 69.14562225341797 A 4.5 4.5 0 0 1 217.83021545410156 69.14562225341797 A 4.5 4.5 0 0 1 226.83021545410156 69.14562225341797" fill-opacity="1" clip-path="url(#aChUDgiUxGQI)" stroke-opacity="1" stroke-linejoin="bevel" stroke-miterlimit="10" stroke-dasharray=""/><path fill="rgb(0,0,139)" stroke="rgb(0,0,139)" paint-order="fill" d="M 224.26498413085938 52.68490219116211 A 4.5 4.5 0 0 1 215.26498413085938 52.68490219116211 A 4.5 4.5 0 0 1 224.26498413085938 52.68490219116211" fill-opacity="1" clip-path="url(#aChUDgiUxGQI)" stroke-opacity="1" stroke-linejoin="bevel" stroke-miterlimit="10" stroke-dasharray=""/><path fill="rgb(0,0,139)" stroke="rgb(0,0,139)" paint-order="fill" d="M 165.78700256347656 85.6063461303711 A 4.5 4.5 0 0 1 156.78700256347656 85.6063461303711 A 4.5 4.5 0 0 1 165.78700256347656 85.6063461303711" fill-opacity="1" clip-path="url(#aChUDgiUxGQI)" stroke-opacity="1" stroke-linejoin="bevel" stroke-miterlimit="10" stroke-dasharray=""/><path fill="rgb(0,0,139)" stroke="rgb(0,0,139)" paint-order="fill" d="M 245.64495849609375 125.11209869384766 A 4.5 4.5 0 0 1 236.64495849609375 125.11209869384766 A 4.5 4.5 0 0 1 245.64495849609375 125.11209869384766" fill-opacity="1" clip-path="url(#aChUDgiUxGQI)" stroke-opacity="1" stroke-linejoin="bevel" stroke-miterlimit="10" stroke-dasharray=""/><path fill="rgb(0,0,139)" stroke="rgb(0,0,139)" paint-order="fill" d="M 253 141.57281494140625 A 4.5 4.5 0 0 1 244 141.57281494140625 A 4.5 4.5 0 0 1 253 141.57281494140625" fill-opacity="1" clip-path="url(#aChUDgiUxGQI)" stroke-opacity="1" stroke-linejoin="bevel" stroke-miterlimit="10" stroke-dasharray=""/><path fill="rgb(0,0,139)" stroke="rgb(0,0,139)" paint-order="fill" d="M 257.0924835205078 158.03353881835938 A 4.5 4.5 0 0 1 248.0924835205078 158.03353881835938 A 4.5 4.5 0 0 1 257.0924835205078 158.03353881835938" fill-opacity="1" clip-path="url(#aChUDgiUxGQI)" stroke-opacity="1" stroke-linejoin="bevel" stroke-miterlimit="10" stroke-dasharray=""/><path fill="rgb(0,0,139)" stroke="rgb(0,0,139)" paint-order="fill" d="M 247.8438720703125 214 A 4.5 4.5 0 0 1 238.8438720703125 214 A 4.5 4.5 0 0 1 247.8438720703125 214" fill-opacity="1" clip-path="url(#aChUDgiUxGQI)" stroke-opacity="1" stroke-linejoin="bevel" stroke-miterlimit="10" stroke-dasharray=""/><path fill="rgb(0,0,139)" stroke="rgb(0,0,139)" paint-order="fill" d="M 218.6222381591797 230.46072387695312 A 4.5 4.5 0 0 1 209.6222381591797 230.46072387695312 A 4.5 4.5 0 0 1 218.6222381591797 230.46072387695312" fill-opacity="1" clip-path="url(#aChUDgiUxGQI)" stroke-opacity="1" stroke-linejoin="bevel" stroke-miterlimit="10" stroke-dasharray=""/><path fill="rgb(0,0,139)" stroke="rgb(0,0,139)" paint-order="fill" d="M 274.9326477050781 197.53927612304688 A 4.5 4.5 0 0 1 265.9326477050781 197.53927612304688 A 4.5 4.5 0 0 1 274.9326477050781 197.53927612304688" fill-opacity="1" clip-path="url(#aChUDgiUxGQI)" stroke-opacity="1" stroke-linejoin="bevel" stroke-miterlimit="10" stroke-dasharray=""/><path fill="rgb(0,0,139)" stroke="rgb(0,0,139)" paint-order="fill" d="M 140.1112060546875 246.92144775390625 A 4.5 4.5 0 0 1 131.1112060546875 246.92144775390625 A 4.5 4.5 0 0 1 140.1112060546875 246.92144775390625" fill-opacity="1" clip-path="url(#aChUDgiUxGQI)" stroke-opacity="1" stroke-linejoin="bevel" stroke-miterlimit="10" stroke-dasharray=""/><path fill="rgb(0,0,139)" stroke="rgb(0,0,139)" paint-order="fill" d="M 216.8544158935547 286.42718505859375 A 4.5 4.5 0 0 1 207.8544158935547 286.42718505859375 A 4.5 4.5 0 0 1 216.8544158935547 286.42718505859375" fill-opacity="1" clip-path="url(#aChUDgiUxGQI)" stroke-opacity="1" stroke-linejoin="bevel" stroke-miterlimit="10" stroke-dasharray=""/><path fill="rgb(0,0,139)" stroke="rgb(0,0,139)" paint-order="fill" d="M 178.65170288085938 302.8879089355469 A 4.5 4.5 0 0 1 169.65170288085938 302.8879089355469 A 4.5 4.5 0 0 1 178.65170288085938 302.8879089355469" fill-opacity="1" clip-path="url(#aChUDgiUxGQI)" stroke-opacity="1" stroke-linejoin="bevel" stroke-miterlimit="10" stroke-dasharray=""/><path fill="rgb(0,0,139)" stroke="rgb(0,0,139)" paint-order="fill" d="M 159.95436096191406 319.3486328125 A 4.5 4.5 0 0 1 150.95436096191406 319.3486328125 A 4.5 4.5 0 0 1 159.95436096191406 319.3486328125" fill-opacity="1" clip-path="url(#aChUDgiUxGQI)" stroke-opacity="1" stroke-linejoin="bevel" stroke-miterlimit="10" stroke-dasharray=""/><path fill="rgb(0,0,139)" stroke="rgb(0,0,139)" paint-order="fill" d="M 188.22384643554688 358.8543701171875 A 4.5 4.5 0 0 1 179.22384643554688 358.8543701171875 A 4.5 4.5 0 0 1 188.22384643554688 358.8543701171875" fill-opacity="1" clip-path="url(#aChUDgiUxGQI)" stroke-opacity="1" stroke-linejoin="bevel" stroke-miterlimit="10" stroke-dasharray=""/><path fill="rgb(0,0,139)" stroke="rgb(0,0,139)" paint-order="fill" d="M 222.68692016601562 375.3150939941406 A 4.5 4.5 0 0 1 213.68692016601562 375.3150939941406 A 4.5 4.5 0 0 1 222.68692016601562 375.3150939941406" fill-opacity="1" clip-path="url(#aChUDgiUxGQI)" stroke-opacity="1" stroke-linejoin="bevel" stroke-miterlimit="10" stroke-dasharray=""/><path fill="none" stroke="rgb(0,0,0)" paint-order="fill" d="M 104.5 400.5 L 470.5 400.5" stroke-opacity="1" stroke-linejoin="bevel" stroke-miterlimit="10" stroke-dasharray=""/><path fill="none" stroke="rgb(0,0,0)" paint-order="fill" d="M 104.5 406.5 L 104.5 398.5 M 141.5 406.5 L 141.5 398.5 M 177.5 406.5 L 177.5 398.5 M 214.5 406.5 L 214.5 398.5 M 250.5 406.5 L 250.5 398.5 M 287.5 406.5 L 287.5 398.5 M 324.5 406.5 L 324.5 398.5 M 360.5 406.5 L 360.5 398.5 M 397.5 406.5 L 397.5 398.5 M 433.5 406.5 L 433.5 398.5 M 470.5 406.5 L 470.5 398.5" stroke-opacity="1" stroke-linejoin="bevel" stroke-miterlimit="10" stroke-dasharray=""/><path fill="none" stroke="rgb(0,0,0)" paint-order="fill" d="" stroke-opacity="1" stroke-linejoin="bevel" stroke-miterlimit="10" stroke-dasharray=""/><text fill="rgb(68,68,68)" stroke="none" font-family="helvetica" font-size="11px" font-style="normal" font-weight="normal" text-decoration="normal" x="96.05078125" y="421" text-anchor="start" dominant-baseline="alphabetic" transform="matrix(1, 0, 0, 1, 0.5, 0.5)" fill-opacity="1">0%</text><text fill="rgb(68,68,68)" stroke="none" font-family="helvetica" font-size="11px" font-style="normal" font-weight="normal" text-decoration="normal" x="129.59194946289062" y="421" text-anchor="start" dominant-baseline="alphabetic" transform="matrix(1, 0, 0, 1, 0.5, 0.5)" fill-opacity="1">10%</text><text fill="rgb(68,68,68)" stroke="none" font-family="helvetica" font-size="11px" font-style="normal" font-weight="normal" text-decoration="normal" x="166.1919403076172" y="421" text-anchor="start" dominant-baseline="alphabetic" transform="matrix(1, 0, 0, 1, 0.5, 0.5)" fill-opacity="1">20%</text><text fill="rgb(68,68,68)" stroke="none" font-family="helvetica" font-size="11px" font-style="normal" font-weight="normal" text-decoration="normal" x="202.7919464111328" y="421" text-anchor="start" dominant-baseline="alphabetic" transform="matrix(1, 0, 0, 1, 0.5, 0.5)" fill-opacity="1">30%</text><text fill="rgb(68,68,68)" stroke="none" font-family="helvetica" font-size="11px" font-style="normal" font-weight="normal" text-decoration="normal" x="239.39193725585938" y="421" text-anchor="start" dominant-baseline="alphabetic" transform="matrix(1, 0, 0, 1, 0.5, 0.5)" fill-opacity="1">40%</text><text fill="rgb(68,68,68)" stroke="none" font-family="helvetica" font-size="11px" font-style="normal" font-weight="normal" text-decoration="normal" x="275.991943359375" y="421" text-anchor="start" dominant-baseline="alphabetic" transform="matrix(1, 0, 0, 1, 0.5, 0.5)" fill-opacity="1">50%</text><text fill="rgb(68,68,68)" stroke="none" font-family="helvetica" font-size="11px" font-style="normal" font-weight="normal" text-decoration="normal" x="312.5919494628906" y="421" text-anchor="start" dominant-baseline="alphabetic" transform="matrix(1, 0, 0, 1, 0.5, 0.5)" fill-opacity="1">60%</text><text fill="rgb(68,68,68)" stroke="none" font-family="helvetica" font-size="11px" font-style="normal" font-weight="normal" text-decoration="normal" x="349.19195556640625" y="421" text-anchor="start" dominant-baseline="alphabetic" transform="matrix(1, 0, 0, 1, 0.5, 0.5)" fill-opacity="1">70%</text><text fill="rgb(68,68,68)" stroke="none" font-family="helvetica" font-size="11px" font-style="normal" font-weight="normal" text-decoration="normal" x="385.79193115234375" y="421" text-anchor="start" dominant-baseline="alphabetic" transform="matrix(1, 0, 0, 1, 0.5, 0.5)" fill-opacity="1">80%</text><text fill="rgb(68,68,68)" stroke="none" font-family="helvetica" font-size="11px" font-style="normal" font-weight="normal" text-decoration="normal" x="422.3919372558594" y="421" text-anchor="start" dominant-baseline="alphabetic" transform="matrix(1, 0, 0, 1, 0.5, 0.5)" fill-opacity="1">90%</text><text fill="rgb(68,68,68)" stroke="none" font-family="helvetica" font-size="11px" font-style="normal" font-weight="normal" text-decoration="normal" x="455.93310546875" y="421" text-anchor="start" dominant-baseline="alphabetic" transform="matrix(1, 0, 0, 1, 0.5, 0.5)" fill-opacity="1">100%</text><text fill="rgb(68,68,68)" stroke="none" font-family="helvetica" font-size="13px" font-style="italic" font-weight="normal" text-decoration="normal" x="203.17919921875" y="444" text-anchor="start" dominant-baseline="alphabetic" transform="matrix(1, 0, 0, 1, 0.5, 0.5)" fill-opacity="1">% reporting within 12 months</text><path fill="none" stroke="rgb(0,0,0)" paint-order="fill" d="M 104.5 400.5 L 104.5 27.5" stroke-opacity="1" stroke-linejoin="bevel" stroke-miterlimit="10" stroke-dasharray=""/><path fill="none" stroke="rgb(0,0,0)" paint-order="fill" d="M 98.5 375.5 L 106.5 375.5 M 98.5 358.5 L 106.5 358.5 M 98.5 319.5 L 106.5 319.5 M 98.5 302.5 L 106.5 302.5 M 98.5 286.5 L 106.5 286.5 M 98.5 246.5 L 106.5 246.5 M 98.5 230.5 L 106.5 230.5 M 98.5 214.5 L 106.5 214.5 M 98.5 197.5 L 106.5 197.5 M 98.5 158.5 L 106.5 158.5 M 98.5 141.5 L 106.5 141.5 M 98.5 125.5 L 106.5 125.5 M 98.5 85.5 L 106.5 85.5 M 98.5 69.5 L 106.5 69.5 M 98.5 52.5 L 106.5 52.5" stroke-opacity="1" stroke-linejoin="bevel" stroke-miterlimit="10" stroke-dasharray=""/><path fill="none" stroke="rgb(0,0,0)" paint-order="fill" d="" stroke-opacity="1" stroke-linejoin="bevel" stroke-miterlimit="10" stroke-dasharray=""/><text fill="rgb(68,68,68)" stroke="none" font-family="helvetica" font-size="11px" font-style="normal" font-weight="normal" text-decoration="normal" x="38.58544921875" y="378.3150939941406" text-anchor="start" dominant-baseline="alphabetic" transform="matrix(1, 0, 0, 1, 0.5, 0.5)" fill-opacity="1">Terminated</text><text fill="rgb(68,68,68)" stroke="none" font-family="helvetica" font-size="11px" font-style="normal" font-weight="normal" text-decoration="normal" x="39.8046875" y="361.8543701171875" text-anchor="start" dominant-baseline="alphabetic" transform="matrix(1, 0, 0, 1, 0.5, 0.5)" fill-opacity="1">Completed</text><text fill="rgb(68,68,68)" stroke="none" font-family="helvetica" font-size="11px" font-style="normal" font-weight="normal" text-decoration="normal" x="65.4892578125" y="322.3486328125" text-anchor="start" dominant-baseline="alphabetic" transform="matrix(1, 0, 0, 1, 0.5, 0.5)" fill-opacity="1">Other</text><text fill="rgb(68,68,68)" stroke="none" font-family="helvetica" font-size="11px" font-style="normal" font-weight="normal" text-decoration="normal" x="40.41162109375" y="305.8879089355469" text-anchor="start" dominant-baseline="alphabetic" transform="matrix(1, 0, 0, 1, 0.5, 0.5)" fill-opacity="1">Prevention</text><text fill="rgb(68,68,68)" stroke="none" font-family="helvetica" font-size="11px" font-style="normal" font-weight="normal" text-decoration="normal" x="43.2744140625" y="289.42718505859375" text-anchor="start" dominant-baseline="alphabetic" transform="matrix(1, 0, 0, 1, 0.5, 0.5)" fill-opacity="1">Treatment</text><text fill="rgb(68,68,68)" stroke="none" font-family="helvetica" font-size="11px" font-style="normal" font-weight="normal" text-decoration="normal" x="65.4892578125" y="249.92144775390625" text-anchor="start" dominant-baseline="alphabetic" transform="matrix(1, 0, 0, 1, 0.5, 0.5)" fill-opacity="1">Other</text><text fill="rgb(68,68,68)" stroke="none" font-family="helvetica" font-size="11px" font-style="normal" font-weight="normal" text-decoration="normal" x="59.376953125" y="233.46072387695312" text-anchor="start" dominant-baseline="alphabetic" transform="matrix(1, 0, 0, 1, 0.5, 0.5)" fill-opacity="1">Device</text><text fill="rgb(68,68,68)" stroke="none" font-family="helvetica" font-size="11px" font-style="normal" font-weight="normal" text-decoration="normal" x="69.15771484375" y="217" text-anchor="start" dominant-baseline="alphabetic" transform="matrix(1, 0, 0, 1, 0.5, 0.5)" fill-opacity="1">Drug</text><text fill="rgb(68,68,68)" stroke="none" font-family="helvetica" font-size="11px" font-style="normal" font-weight="normal" text-decoration="normal" x="45.9169921875" y="200.53927612304688" text-anchor="start" dominant-baseline="alphabetic" transform="matrix(1, 0, 0, 1, 0.5, 0.5)" fill-opacity="1">Biological</text><text fill="rgb(68,68,68)" stroke="none" font-family="helvetica" font-size="11px" font-style="normal" font-weight="normal" text-decoration="normal" x="52.63623046875" y="161.03353881835938" text-anchor="start" dominant-baseline="alphabetic" transform="matrix(1, 0, 0, 1, 0.5, 0.5)" fill-opacity="1">Phase 4</text><text fill="rgb(68,68,68)" stroke="none" font-family="helvetica" font-size="11px" font-style="normal" font-weight="normal" text-decoration="normal" x="23.8955078125" y="144.57281494140625" text-anchor="start" dominant-baseline="alphabetic" transform="matrix(1, 0, 0, 1, 0.5, 0.5)" fill-opacity="1">Phase 2/3 &amp; 3</text><text fill="rgb(68,68,68)" stroke="none" font-family="helvetica" font-size="11px" font-style="normal" font-weight="normal" text-decoration="normal" x="23.8955078125" y="128.11209106445312" text-anchor="start" dominant-baseline="alphabetic" transform="matrix(1, 0, 0, 1, 0.5, 0.5)" fill-opacity="1">Phase 1/2 &amp; 2</text><text fill="rgb(68,68,68)" stroke="none" font-family="helvetica" font-size="11px" font-style="normal" font-weight="normal" text-decoration="normal" x="65.4892578125" y="88.60635375976562" text-anchor="start" dominant-baseline="alphabetic" transform="matrix(1, 0, 0, 1, 0.5, 0.5)" fill-opacity="1">Other</text><text fill="rgb(68,68,68)" stroke="none" font-family="helvetica" font-size="11px" font-style="normal" font-weight="normal" text-decoration="normal" x="74.05615234375" y="72.1456298828125" text-anchor="start" dominant-baseline="alphabetic" transform="matrix(1, 0, 0, 1, 0.5, 0.5)" fill-opacity="1">NIH</text><text fill="rgb(68,68,68)" stroke="none" font-family="helvetica" font-size="11px" font-style="normal" font-weight="normal" text-decoration="normal" x="53.87158203125" y="55.684906005859375" text-anchor="start" dominant-baseline="alphabetic" transform="matrix(1, 0, 0, 1, 0.5, 0.5)" fill-opacity="1">Industry</text><text fill="rgb(128,128,128)" stroke="none" font-family="helvetica" font-size="11px" font-style="normal" font-weight="bold" text-decoration="normal" x="-0.3037109375" y="363.584716796875" text-anchor="start" dominant-baseline="alphabetic" transform="matrix(6.123233995736766e-17, -1, 1, 6.123233995736766e-17, -350.189208984375, 382.980224609375)" fill-opacity="1">status</text><text fill="rgb(128,128,128)" stroke="none" font-family="helvetica" font-size="11px" font-style="normal" font-weight="bold" text-decoration="normal" x="-5.801025390625" y="299.3879089355469" text-anchor="start" dominant-baseline="alphabetic" transform="matrix(6.123233995736766e-17, -1, 1, 6.123233995736766e-17, -285.9924011230469, 318.7834167480469)" fill-opacity="1">purpose</text><text fill="rgb(128,128,128)" stroke="none" font-family="helvetica" font-size="11px" font-style="normal" font-weight="bold" text-decoration="normal" x="-15.5791015625" y="218.73036193847656" text-anchor="start" dominant-baseline="alphabetic" transform="matrix(6.123233995736766e-17, -1, 1, 6.123233995736766e-17, -205.33485412597656, 238.12586975097656)" fill-opacity="1">intervention</text><text fill="rgb(128,128,128)" stroke="none" font-family="helvetica" font-size="11px" font-style="normal" font-weight="bold" text-decoration="normal" x="-0.000244140625" y="138.07281494140625" text-anchor="start" dominant-baseline="alphabetic" transform="matrix(6.123233995736766e-17, -1, 1, 6.123233995736766e-17, -124.67730712890625, 157.46832275390625)" fill-opacity="1">phase</text><text fill="rgb(128,128,128)" stroke="none" font-family="helvetica" font-size="11px" font-style="normal" font-weight="bold" text-decoration="normal" x="-4.26220703125" y="65.6456298828125" text-anchor="start" dominant-baseline="alphabetic" transform="matrix(6.123233995736766e-17, -1, 1, 6.123233995736766e-17, -52.2501220703125, 85.0411376953125)" fill-opacity="1">funding</text><path fill="none" stroke="rgb(211,211,211)" paint-order="fill" d="M 12.5 339.5 L 101.5 339.5 M 12.5 266.5 L 101.5 266.5 M 12.5 177.5 L 101.5 177.5 M 12.5 105.5 L 101.5 105.5" stroke-opacity="1" stroke-linejoin="bevel" stroke-miterlimit="10" stroke-width="2" stroke-dasharray=""/><text fill="rgb(68,68,68)" stroke="none" font-family="helvetica" font-size="13px" font-style="normal" font-weight="bold" text-decoration="normal" x="104" y="19" text-anchor="start" dominant-baseline="alphabetic" transform="matrix(1, 0, 0, 1, 0.5, 0.5)" fill-opacity="1">Results reported within 12 months</text></svg>